<?xml-stylesheet type="text/css" href="../css/logo.css" ?>
<svg xmlns="http://www.w3.org/2000/svg" xmlns:xlink="http://www.w3.org/1999/xlink" preserveAspectRatio="xMidYMid" width="477" height="401" viewBox="0 0 477 401">
  <defs>
    <style>
    </style>
  </defs>
  <path d="M310.497,283.642 C310.497,283.975 310.497,284.309 310.497,284.642 C310.163,284.809 309.829,284.976 309.495,285.142 C309.662,287.476 309.829,289.811 309.996,292.145 C310.727,294.449 312.613,299.759 311.498,303.650 C309.719,309.853 309.069,321.847 310.997,328.659 C310.997,330.160 310.997,331.661 310.997,333.161 C311.794,335.959 312.217,339.921 312.999,342.665 C312.999,343.998 312.999,345.333 312.999,346.666 C313.005,350.086 312.742,354.556 313.500,357.170 C313.500,358.171 313.500,359.171 313.500,360.172 C313.667,360.172 313.834,360.172 314.001,360.172 C314.001,361.005 314.001,361.839 314.001,362.673 C314.167,362.673 314.334,362.673 314.501,362.673 C314.501,363.840 314.501,365.007 314.501,366.174 C314.668,366.174 314.835,366.174 315.002,366.174 C315.002,367.174 315.002,368.175 315.002,369.175 C315.169,369.175 315.336,369.175 315.502,369.175 C315.502,370.175 315.502,371.176 315.502,372.176 C315.669,372.176 315.836,372.176 316.003,372.176 C316.003,373.177 316.003,374.177 316.003,375.177 C316.170,375.177 316.337,375.177 316.503,375.177 C316.503,375.678 316.503,376.178 316.503,376.678 C316.670,376.678 316.837,376.678 317.004,376.678 C317.004,377.178 317.004,377.678 317.004,378.179 C317.171,378.179 317.338,378.179 317.505,378.179 C317.505,378.679 317.505,379.179 317.505,379.679 C317.671,379.679 317.838,379.679 318.005,379.679 C318.816,382.242 317.477,385.258 317.004,386.682 C316.837,388.182 316.670,389.683 316.503,391.184 C316.337,391.184 316.170,391.184 316.003,391.184 C316.003,391.684 316.003,392.184 316.003,392.684 C315.836,392.684 315.669,392.684 315.502,392.684 C315.502,393.184 315.502,393.685 315.502,394.185 C315.169,394.352 314.835,394.518 314.501,394.685 C314.501,395.018 314.501,395.352 314.501,395.685 C314.168,395.852 313.834,396.019 313.500,396.186 C313.500,396.519 313.500,396.853 313.500,397.186 L312.499,398.186 C312.165,398.186 311.831,398.186 311.498,398.186 C311.331,398.520 311.164,398.853 310.997,399.187 C309.567,400.068 299.089,401.678 295.980,400.687 C295.980,400.521 295.980,400.354 295.980,400.187 C295.479,400.187 294.979,400.187 294.478,400.187 C294.478,400.020 294.478,399.854 294.478,399.687 C294.145,399.687 293.811,399.687 293.477,399.687 C293.477,399.520 293.477,399.354 293.477,399.187 C293.143,399.187 292.810,399.187 292.476,399.187 C292.309,398.853 292.142,398.520 291.975,398.186 C291.642,398.186 291.308,398.186 290.974,398.186 C290.474,397.520 289.973,396.852 289.473,396.186 C289.139,396.186 288.805,396.186 288.471,396.186 C288.305,395.852 288.138,395.519 287.971,395.185 C287.137,394.518 286.302,393.851 285.468,393.184 C285.468,392.851 285.468,392.517 285.468,392.184 C285.134,392.017 284.800,391.851 284.467,391.684 C284.467,391.350 284.467,391.017 284.467,390.683 C284.133,390.517 283.799,390.350 283.466,390.183 C283.466,389.850 283.466,389.516 283.466,389.183 C283.132,389.016 282.798,388.849 282.464,388.683 C282.464,388.349 282.464,388.016 282.464,387.682 C281.797,387.182 281.130,386.682 280.462,386.182 C280.462,385.848 280.462,385.515 280.462,385.181 C279.962,384.848 279.461,384.514 278.960,384.181 C278.960,383.848 278.960,383.514 278.960,383.181 C278.293,382.680 277.626,382.180 276.958,381.680 C276.958,381.347 276.958,381.013 276.958,380.680 C276.458,380.346 275.957,380.013 275.456,379.679 C275.456,379.346 275.456,379.012 275.456,378.679 C275.123,378.512 274.789,378.345 274.455,378.179 C274.455,377.845 274.455,377.512 274.455,377.178 C274.122,377.012 273.788,376.845 273.454,376.678 C273.287,376.178 273.120,375.678 272.954,375.177 C272.787,375.177 272.620,375.177 272.453,375.177 C271.786,373.344 271.118,371.509 270.451,369.675 C270.117,369.509 269.783,369.342 269.450,369.175 C269.450,368.842 269.450,368.508 269.450,368.175 C269.116,368.008 268.782,367.841 268.448,367.675 C268.448,367.341 268.448,367.008 268.448,366.674 C268.115,366.507 267.781,366.341 267.447,366.174 C267.114,365.174 266.780,364.173 266.446,363.173 C266.112,363.006 265.779,362.839 265.445,362.673 C265.278,362.006 265.111,361.339 264.944,360.672 C264.611,360.505 264.277,360.338 263.943,360.172 C263.943,359.838 263.943,359.505 263.943,359.171 C263.610,359.004 263.276,358.838 262.942,358.671 C262.942,358.338 262.942,358.004 262.942,357.671 C262.608,357.504 262.275,357.337 261.941,357.170 C261.941,356.837 261.941,356.503 261.941,356.170 C261.607,356.003 261.273,355.837 260.940,355.670 C260.940,355.336 260.940,355.003 260.940,354.669 C260.606,354.503 260.272,354.336 259.939,354.169 C259.939,353.836 259.939,353.502 259.939,353.169 C258.938,352.335 257.936,351.501 256.935,350.668 C256.768,350.001 256.601,349.334 256.435,348.667 C256.101,348.500 255.767,348.334 255.433,348.167 C255.433,347.833 255.433,347.500 255.433,347.167 C254.432,346.333 253.431,345.499 252.430,344.666 C250.119,344.689 248.941,344.866 247.424,345.666 C247.424,345.833 247.424,345.999 247.424,346.166 C247.091,346.166 246.757,346.166 246.423,346.166 C246.423,346.333 246.423,346.500 246.423,346.666 C246.089,346.666 245.756,346.666 245.422,346.666 C245.422,346.833 245.422,347.000 245.422,347.167 C245.088,347.167 244.755,347.167 244.421,347.167 C244.421,347.333 244.421,347.500 244.421,347.667 C241.585,348.167 238.747,348.667 235.911,349.167 C235.911,349.334 235.911,349.501 235.911,349.667 C235.244,349.834 234.576,350.001 233.909,350.168 C233.909,350.334 233.909,350.501 233.909,350.668 C233.575,350.668 233.241,350.668 232.908,350.668 C232.908,350.835 232.908,351.001 232.908,351.168 C232.574,351.168 232.240,351.168 231.907,351.168 C231.907,351.335 231.907,351.502 231.907,351.668 C231.573,351.668 231.239,351.668 230.905,351.668 C230.905,351.835 230.905,352.002 230.905,352.168 C230.572,352.168 230.238,352.168 229.904,352.168 C229.904,352.335 229.904,352.502 229.904,352.669 C229.571,352.669 229.237,352.669 228.903,352.669 C228.903,352.835 228.903,353.002 228.903,353.169 C228.569,353.169 228.236,353.169 227.902,353.169 C227.902,353.336 227.902,353.502 227.902,353.669 C226.400,353.836 224.898,354.003 223.397,354.169 C223.397,354.336 223.397,354.503 223.397,354.669 C222.729,354.669 222.062,354.669 221.394,354.669 C221.394,354.836 221.394,355.003 221.394,355.170 C221.061,355.170 220.727,355.170 220.393,355.170 C220.393,355.336 220.393,355.503 220.393,355.670 C219.726,355.670 219.058,355.670 218.391,355.670 C218.391,355.837 218.391,356.003 218.391,356.170 C216.389,356.170 214.386,356.170 212.384,356.170 C212.384,356.337 212.384,356.504 212.384,356.670 C210.382,356.670 208.379,356.670 206.377,356.670 C206.377,356.837 206.377,357.004 206.377,357.170 C204.334,357.743 195.906,357.128 194.363,356.670 C194.363,356.504 194.363,356.337 194.363,356.170 C192.195,356.003 190.025,355.837 187.856,355.670 C187.856,355.503 187.856,355.336 187.856,355.170 C187.355,355.170 186.855,355.170 186.354,355.170 C186.354,355.003 186.354,354.836 186.354,354.669 C185.687,354.669 185.019,354.669 184.352,354.669 C184.352,354.503 184.352,354.336 184.352,354.169 C183.518,354.003 182.683,353.836 181.849,353.669 C181.849,353.502 181.849,353.336 181.849,353.169 C181.182,353.002 180.514,352.835 179.847,352.669 C179.847,352.502 179.847,352.335 179.847,352.168 C179.346,352.168 178.846,352.168 178.345,352.168 C178.345,352.002 178.345,351.835 178.345,351.668 C177.177,351.502 176.009,351.335 174.841,351.168 C174.841,351.001 174.841,350.835 174.841,350.668 C174.174,350.501 173.506,350.334 172.839,350.168 C172.839,350.001 172.839,349.834 172.839,349.667 C172.505,349.667 172.171,349.667 171.838,349.667 C171.838,349.501 171.838,349.334 171.838,349.167 C171.170,348.667 170.503,348.167 169.835,347.667 C169.835,347.333 169.835,347.000 169.835,346.666 C169.168,346.166 168.500,345.666 167.833,345.166 C167.833,344.832 167.833,344.499 167.833,344.165 L166.832,343.165 C166.498,343.165 166.164,343.165 165.831,343.165 C165.664,342.832 165.497,342.498 165.330,342.165 C162.494,341.164 159.657,340.164 156.820,339.163 C156.654,338.830 156.487,338.496 156.320,338.163 C155.986,338.163 155.652,338.163 155.319,338.163 C152.983,335.496 150.646,332.827 148.311,330.160 C147.977,329.160 147.643,328.159 147.310,327.159 C146.976,326.992 146.642,326.825 146.308,326.659 C146.308,326.325 146.308,325.992 146.308,325.658 C145.975,325.491 145.641,325.325 145.307,325.158 C145.307,324.825 145.307,324.491 145.307,324.158 C144.974,323.991 144.640,323.824 144.306,323.657 C143.138,321.323 141.970,318.989 140.802,316.655 C140.802,315.988 140.802,315.321 140.802,314.654 C140.635,314.654 140.468,314.654 140.301,314.654 C140.301,313.987 140.301,313.320 140.301,312.653 C140.135,312.653 139.968,312.653 139.801,312.653 C139.801,311.986 139.801,311.319 139.801,310.652 C139.634,310.652 139.467,310.652 139.300,310.652 C139.300,309.652 139.300,308.651 139.300,307.651 C139.133,307.651 138.967,307.651 138.800,307.651 C138.800,306.818 138.800,305.984 138.800,305.150 C138.633,305.150 138.466,305.150 138.299,305.150 C138.299,304.317 138.299,303.483 138.299,302.649 C138.132,302.649 137.965,302.649 137.799,302.649 C137.799,301.816 137.799,300.982 137.799,300.148 C137.632,300.148 137.465,300.148 137.298,300.148 C137.298,299.481 137.298,298.814 137.298,298.147 C137.131,298.147 136.964,298.147 136.797,298.147 C136.797,297.647 136.797,297.147 136.797,296.647 C136.631,296.647 136.464,296.647 136.297,296.647 C136.297,296.147 136.297,295.646 136.297,295.146 C136.130,295.146 135.963,295.146 135.796,295.146 C135.796,294.813 135.796,294.479 135.796,294.146 C135.079,292.769 133.861,291.234 132.793,290.144 C132.292,289.811 131.792,289.477 131.291,289.144 C131.291,288.810 131.291,288.477 131.291,288.144 C130.457,287.477 129.622,286.810 128.788,286.143 C128.788,285.809 128.788,285.476 128.788,285.142 C128.455,284.976 128.121,284.809 127.787,284.642 C126.953,283.642 126.118,282.641 125.284,281.641 C124.116,280.641 122.948,279.640 121.780,278.640 C121.780,278.306 121.780,277.973 121.780,277.639 C121.447,277.473 121.113,277.306 120.779,277.139 C120.612,276.639 120.445,276.139 120.279,275.639 C120.112,275.639 119.945,275.639 119.778,275.639 C119.611,274.972 119.444,274.305 119.277,273.638 C118.777,273.304 118.276,272.971 117.776,272.637 C116.608,271.304 115.440,269.970 114.272,268.636 C113.938,268.636 113.604,268.636 113.270,268.636 C113.104,268.136 112.937,267.635 112.770,267.135 C111.602,266.135 110.434,265.134 109.266,264.134 C108.932,263.634 108.598,263.134 108.265,262.634 C107.931,262.634 107.597,262.634 107.264,262.634 C106.763,261.967 106.262,261.300 105.762,260.633 C105.428,260.633 105.094,260.633 104.761,260.633 C104.594,260.299 104.427,259.966 104.260,259.632 C103.760,259.466 103.259,259.299 102.758,259.132 C102.758,258.966 102.758,258.799 102.758,258.632 C102.425,258.632 102.091,258.632 101.757,258.632 C101.424,258.132 101.090,257.632 100.756,257.131 C100.422,257.131 100.089,257.131 99.755,257.131 C99.588,256.798 99.421,256.464 99.254,256.131 C98.754,255.964 98.253,255.798 97.753,255.631 C97.753,255.464 97.753,255.297 97.753,255.131 C96.752,254.797 95.750,254.464 94.749,254.130 C94.749,253.964 94.749,253.797 94.749,253.630 C94.082,253.463 93.414,253.297 92.747,253.130 C92.580,252.796 92.413,252.463 92.246,252.129 C91.913,252.129 91.579,252.129 91.245,252.129 C91.245,251.963 91.245,251.796 91.245,251.629 C89.464,250.687 87.441,250.632 84.738,250.629 C84.738,250.796 84.738,250.962 84.738,251.129 C83.904,251.296 83.069,251.463 82.235,251.629 C81.901,252.129 81.567,252.630 81.234,253.130 C80.900,253.130 80.566,253.130 80.233,253.130 C79.398,254.130 78.564,255.131 77.730,256.131 C77.396,256.131 77.062,256.131 76.729,256.131 C76.562,256.464 76.395,256.798 76.228,257.131 C75.727,257.131 75.227,257.131 74.726,257.131 C74.726,257.298 74.726,257.465 74.726,257.632 C74.393,257.632 74.059,257.632 73.725,257.632 C73.725,257.798 73.725,257.965 73.725,258.132 C73.225,258.132 72.724,258.132 72.223,258.132 C72.057,258.465 71.890,258.799 71.723,259.132 C69.455,260.617 65.967,262.266 65.215,265.135 C64.882,265.135 64.548,265.135 64.214,265.135 C63.380,266.135 62.546,267.135 61.711,268.136 C61.378,268.136 61.044,268.136 60.710,268.136 C60.210,268.803 59.709,269.470 59.209,270.137 C59.042,270.137 58.875,270.137 58.708,270.137 C58.708,270.470 58.708,270.803 58.708,271.137 C58.374,271.304 58.040,271.470 57.707,271.637 C57.707,271.971 57.707,272.304 57.707,272.637 C57.540,272.637 57.373,272.637 57.206,272.637 C56.873,274.138 56.539,275.639 56.205,277.139 C56.038,277.139 55.871,277.139 55.704,277.139 C55.371,278.140 55.037,279.140 54.703,280.140 C54.537,280.140 54.370,280.140 54.203,280.140 C54.036,280.807 53.869,281.474 53.702,282.141 C53.369,282.308 53.035,282.475 52.701,282.641 C52.534,283.308 52.367,283.975 52.200,284.642 C52.034,284.642 51.867,284.642 51.700,284.642 C51.366,286.643 51.032,288.644 50.699,290.644 C50.532,290.644 50.365,290.644 50.198,290.644 C50.031,291.311 49.864,291.978 49.698,292.645 C49.364,292.812 49.030,292.979 48.696,293.145 C48.696,293.479 48.696,293.812 48.696,294.146 C48.530,294.146 48.363,294.146 48.196,294.146 C48.196,294.646 48.196,295.146 48.196,295.646 C48.029,295.646 47.862,295.646 47.695,295.646 C47.695,295.980 47.695,296.313 47.695,296.647 C47.528,296.647 47.362,296.647 47.195,296.647 C47.195,297.147 47.195,297.647 47.195,298.147 C45.860,299.314 44.525,300.482 43.190,301.649 C43.190,301.982 43.190,302.316 43.190,302.649 C43.023,302.649 42.856,302.649 42.690,302.649 C42.690,302.983 42.690,303.316 42.690,303.650 C42.523,303.650 42.356,303.650 42.189,303.650 C42.189,304.316 42.189,304.983 42.189,305.650 C42.022,305.650 41.855,305.650 41.688,305.650 C41.688,306.150 41.688,306.651 41.688,307.151 C41.355,307.318 41.021,307.484 40.687,307.651 C40.520,308.151 40.354,308.652 40.187,309.152 C39.686,309.485 39.186,309.819 38.685,310.152 C38.351,311.152 38.018,312.153 37.684,313.153 C37.517,313.153 37.350,313.153 37.183,313.153 C37.183,313.487 37.183,313.820 37.183,314.154 C37.016,314.154 36.850,314.154 36.683,314.154 C36.349,315.154 36.015,316.155 35.682,317.155 C35.515,317.155 35.348,317.155 35.181,317.155 C35.181,317.655 35.181,318.155 35.181,318.655 C35.014,318.655 34.847,318.655 34.680,318.655 C34.680,318.989 34.680,319.322 34.680,319.656 C34.514,319.656 34.347,319.656 34.180,319.656 C34.180,319.989 34.180,320.323 34.180,320.656 C33.846,320.823 33.512,320.990 33.179,321.156 C32.845,322.157 32.511,323.157 32.178,324.158 C31.844,324.324 31.510,324.491 31.176,324.658 C31.176,324.991 31.176,325.325 31.176,325.658 C30.843,325.825 30.509,325.992 30.175,326.158 C30.175,326.492 30.175,326.825 30.175,327.159 C29.842,327.325 29.508,327.492 29.174,327.659 C28.340,328.659 27.505,329.660 26.671,330.660 C24.836,332.327 23.000,333.995 21.165,335.662 C17.192,337.438 11.092,335.166 8.150,334.161 C7.483,334.161 6.815,334.161 6.148,334.161 C6.148,333.995 6.148,333.828 6.148,333.661 C5.647,333.661 5.146,333.661 4.646,333.661 C4.646,333.495 4.646,333.328 4.646,333.161 C4.312,333.161 3.978,333.161 3.645,333.161 C3.478,332.828 3.311,332.494 3.144,332.161 C1.851,331.237 2.225,332.701 1.643,330.660 C-0.435,329.306 -0.288,321.504 0.641,318.655 C0.808,318.655 0.975,318.655 1.142,318.655 C1.142,317.322 1.142,315.988 1.142,314.654 C1.309,314.654 1.476,314.654 1.643,314.654 C1.643,314.154 1.643,313.653 1.643,313.153 C1.809,313.153 1.976,313.153 2.143,313.153 C2.143,312.820 2.143,312.486 2.143,312.153 C2.310,312.153 2.477,312.153 2.644,312.153 C2.810,311.153 2.977,310.152 3.144,309.152 C3.311,309.152 3.478,309.152 3.645,309.152 C3.812,307.985 3.979,306.817 4.145,305.650 C4.312,305.650 4.479,305.650 4.646,305.650 C4.646,305.317 4.646,304.983 4.646,304.650 C4.813,304.650 4.980,304.650 5.147,304.650 C5.147,304.317 5.147,303.983 5.147,303.650 C5.313,303.650 5.480,303.650 5.647,303.650 C5.647,303.316 5.647,302.983 5.647,302.649 C5.814,302.649 5.981,302.649 6.148,302.649 C6.481,301.649 6.815,300.648 7.149,299.648 C7.316,299.648 7.483,299.648 7.649,299.648 C7.983,297.147 8.317,294.646 8.651,292.145 C8.817,292.145 8.984,292.145 9.151,292.145 C9.151,291.812 9.151,291.478 9.151,291.145 C9.485,290.978 9.819,290.811 10.152,290.644 C10.319,289.978 10.486,289.311 10.653,288.644 C10.820,288.644 10.987,288.644 11.153,288.644 C12.056,286.204 10.464,282.273 11.654,280.140 C12.155,279.807 12.655,279.473 13.156,279.140 C13.156,278.807 13.156,278.473 13.156,278.140 C13.656,277.806 14.157,277.473 14.657,277.139 C14.657,276.806 14.657,276.472 14.657,276.139 C14.991,275.972 15.325,275.805 15.659,275.639 C15.992,273.638 16.326,271.637 16.660,269.636 C16.827,269.636 16.993,269.636 17.160,269.636 C17.160,269.136 17.160,268.636 17.160,268.136 C17.327,268.136 17.494,268.136 17.661,268.136 C17.661,267.636 17.661,267.135 17.661,266.635 C17.828,266.635 17.995,266.635 18.161,266.635 C18.161,266.135 18.161,265.635 18.161,265.135 C18.328,265.135 18.495,265.135 18.662,265.135 C18.662,264.634 18.662,264.134 18.662,263.634 C18.829,263.634 18.996,263.634 19.163,263.634 C19.163,263.301 19.163,262.967 19.163,262.634 C19.329,262.634 19.496,262.634 19.663,262.634 C19.997,260.966 20.331,259.299 20.664,257.632 C20.831,257.632 20.998,257.632 21.165,257.632 C21.165,257.298 21.165,256.965 21.165,256.631 C21.332,256.631 21.499,256.631 21.665,256.631 C21.665,256.131 21.665,255.631 21.665,255.131 C21.832,255.131 21.999,255.131 22.166,255.131 C22.166,254.130 22.166,253.130 22.166,252.129 C22.333,252.129 22.500,252.129 22.667,252.129 C22.833,251.463 23.000,250.796 23.167,250.129 C23.334,250.129 23.501,250.129 23.668,250.129 C23.835,249.462 24.001,248.795 24.168,248.128 C24.502,247.961 24.836,247.794 25.169,247.628 C25.169,247.294 25.169,246.961 25.169,246.627 C25.336,246.627 25.503,246.627 25.670,246.627 C26.004,244.293 26.338,241.959 26.671,239.625 C26.838,239.625 27.005,239.625 27.172,239.625 C27.505,238.624 27.839,237.624 28.173,236.623 C28.340,236.623 28.507,236.623 28.673,236.623 C28.840,235.790 29.007,234.956 29.174,234.122 C29.341,234.122 29.508,234.122 29.675,234.122 C30.175,231.288 30.676,228.453 31.176,225.619 C31.343,225.619 31.510,225.619 31.677,225.619 C31.677,225.119 31.677,224.619 31.677,224.119 C31.844,224.119 32.011,224.119 32.178,224.119 C32.178,223.452 32.178,222.785 32.178,222.118 C32.344,222.118 32.511,222.118 32.678,222.118 C32.678,221.784 32.678,221.451 32.678,221.117 C32.845,221.117 33.012,221.117 33.179,221.117 C33.179,220.451 33.179,219.783 33.179,219.117 C33.346,219.117 33.512,219.117 33.679,219.117 C34.180,216.116 34.680,213.114 35.181,210.113 C35.348,210.113 35.515,210.113 35.682,210.113 C35.682,209.613 35.682,209.113 35.682,208.613 C35.848,208.613 36.015,208.613 36.182,208.613 C36.516,207.612 36.850,206.612 37.183,205.611 C37.350,205.611 37.517,205.611 37.684,205.611 C37.684,205.278 37.684,204.944 37.684,204.611 C37.851,204.611 38.018,204.611 38.184,204.611 C38.184,204.278 38.184,203.944 38.184,203.611 C38.351,203.611 38.518,203.611 38.685,203.611 C38.685,203.110 38.685,202.610 38.685,202.110 C38.852,202.110 39.019,202.110 39.186,202.110 C39.186,201.610 39.186,201.110 39.186,200.609 C39.352,200.609 39.519,200.609 39.686,200.609 C39.686,200.109 39.686,199.609 39.686,199.109 C39.853,199.109 40.020,199.109 40.187,199.109 C40.187,198.275 40.187,197.441 40.187,196.608 C40.354,196.608 40.520,196.608 40.687,196.608 C40.854,195.274 41.021,193.940 41.188,192.606 C41.355,192.606 41.522,192.606 41.688,192.606 C41.688,192.106 41.688,191.606 41.688,191.106 C41.855,191.106 42.022,191.106 42.189,191.106 C42.189,190.439 42.189,189.772 42.189,189.105 C42.356,189.105 42.523,189.105 42.690,189.105 C42.856,187.605 43.023,186.104 43.190,184.603 C43.357,184.603 43.524,184.603 43.691,184.603 C43.858,183.603 44.024,182.602 44.191,181.602 C44.358,181.602 44.525,181.602 44.692,181.602 C44.859,180.935 45.026,180.268 45.192,179.601 C45.359,179.601 45.526,179.601 45.693,179.601 C46.360,176.767 47.028,173.932 47.695,171.098 C47.862,171.098 48.029,171.098 48.196,171.098 C48.196,170.598 48.196,170.097 48.196,169.597 C48.363,169.597 48.530,169.597 48.696,169.597 C48.696,169.264 48.696,168.930 48.696,168.597 C48.863,168.597 49.030,168.597 49.197,168.597 C49.197,168.097 49.197,167.597 49.197,167.096 C49.364,167.096 49.531,167.096 49.698,167.096 C50.031,164.929 50.365,162.761 50.699,160.594 C50.866,160.594 51.032,160.594 51.199,160.594 C51.199,160.094 51.199,159.593 51.199,159.093 C51.366,159.093 51.533,159.093 51.700,159.093 C51.700,158.593 51.700,158.093 51.700,157.593 C51.867,157.593 52.034,157.593 52.200,157.593 C52.367,156.426 52.534,155.258 52.701,154.091 C52.868,154.091 53.035,154.091 53.202,154.091 C53.202,153.424 53.202,152.757 53.202,152.091 C53.368,152.091 53.535,152.091 53.702,152.091 C53.869,150.257 54.036,148.422 54.203,146.588 C55.469,143.073 57.582,139.756 58.708,136.084 C58.708,134.417 58.708,132.749 58.708,131.082 C58.875,131.082 59.042,131.082 59.209,131.082 C59.209,130.249 59.209,129.415 59.209,128.581 C59.375,128.581 59.542,128.581 59.709,128.581 C59.709,127.914 59.709,127.247 59.709,126.581 C59.876,126.581 60.043,126.581 60.210,126.581 C60.210,125.080 60.210,123.579 60.210,122.079 C60.376,122.079 60.543,122.079 60.710,122.079 C60.710,121.412 60.710,120.745 60.710,120.078 C60.877,120.078 61.044,120.078 61.211,120.078 C61.211,119.745 61.211,119.411 61.211,119.078 C61.378,119.078 61.545,119.078 61.711,119.078 C61.711,118.578 61.711,118.077 61.711,117.577 C61.878,117.577 62.045,117.577 62.212,117.577 C62.212,115.410 62.212,113.242 62.212,111.075 C62.379,111.075 62.546,111.075 62.713,111.075 C62.713,110.408 62.713,109.741 62.713,109.074 C62.879,109.074 63.046,109.074 63.213,109.074 C63.213,108.407 63.213,107.740 63.213,107.073 C63.380,107.073 63.547,107.073 63.714,107.073 C63.881,105.239 64.047,103.405 64.214,101.571 C64.381,101.571 64.548,101.571 64.715,101.571 C64.715,101.071 64.715,100.570 64.715,100.070 C64.882,100.070 65.049,100.070 65.215,100.070 C65.215,97.736 65.215,95.402 65.215,93.068 C65.382,93.068 65.549,93.068 65.716,93.068 C65.716,92.567 65.716,92.067 65.716,91.567 C65.883,91.567 66.050,91.567 66.217,91.567 C66.550,90.567 66.884,89.566 67.218,88.566 C67.385,88.566 67.551,88.566 67.718,88.566 C67.718,86.398 67.718,84.231 67.718,82.063 C67.885,82.063 68.052,82.063 68.219,82.063 C68.219,81.396 68.219,80.729 68.219,80.062 C68.386,80.062 68.553,80.062 68.719,80.062 C68.719,77.062 68.719,74.060 68.719,71.059 C68.886,71.059 69.053,71.059 69.220,71.059 C69.220,70.559 69.220,70.058 69.220,69.558 C69.387,69.558 69.554,69.558 69.721,69.558 C69.721,68.891 69.721,68.224 69.721,67.558 C69.887,67.558 70.054,67.558 70.221,67.558 C70.388,65.557 70.555,63.556 70.722,61.555 C70.889,61.555 71.055,61.555 71.222,61.555 C71.222,61.055 71.222,60.555 71.222,60.055 C71.389,60.055 71.556,60.055 71.723,60.055 C71.723,59.555 71.723,59.054 71.723,58.554 C71.890,58.554 72.057,58.554 72.223,58.554 C72.223,58.054 72.223,57.554 72.223,57.053 C72.390,57.053 72.557,57.053 72.724,57.053 C72.724,56.553 72.724,56.053 72.724,55.553 C72.891,55.553 73.058,55.553 73.225,55.553 C73.225,54.553 73.225,53.552 73.225,52.552 C73.391,52.552 73.558,52.552 73.725,52.552 C73.725,51.718 73.725,50.884 73.725,50.051 C73.725,50.051 74.135,50.086 74.226,49.050 C74.226,47.550 74.226,46.049 74.226,44.549 C74.393,44.549 74.559,44.549 74.726,44.549 C74.726,44.048 74.726,43.548 74.726,43.048 C74.893,43.048 75.060,43.048 75.227,43.048 C75.227,42.548 75.227,42.048 75.227,41.547 C75.394,41.547 75.561,41.547 75.727,41.547 C75.727,38.547 75.727,35.545 75.727,32.544 C76.392,30.303 77.071,26.783 77.730,24.541 C77.730,21.707 77.730,18.872 77.730,16.037 C77.897,16.037 78.063,16.037 78.230,16.037 C78.230,15.537 78.230,15.037 78.230,14.537 C78.397,14.537 78.564,14.537 78.731,14.537 C78.731,14.037 78.731,13.536 78.731,13.036 C80.161,9.436 82.517,1.998 86.239,1.032 C87.791,-0.547 93.007,-0.090 94.749,1.032 C95.083,1.532 95.417,2.032 95.750,2.532 C96.084,2.532 96.418,2.532 96.752,2.532 L97.753,3.533 C97.753,3.866 97.753,4.200 97.753,4.533 C98.253,4.866 98.754,5.200 99.254,5.533 C99.254,5.867 99.254,6.200 99.254,6.534 C99.588,6.701 99.922,6.867 100.256,7.034 C100.256,7.367 100.256,7.701 100.256,8.034 C100.589,8.201 100.923,8.368 101.257,8.535 C101.257,9.035 101.257,9.535 101.257,10.035 C101.424,10.035 101.590,10.035 101.757,10.035 C101.757,10.535 101.757,11.036 101.757,11.536 C101.924,11.536 102.091,11.536 102.258,11.536 C102.258,14.703 102.258,17.872 102.258,21.039 C102.091,26.708 101.924,32.378 101.757,38.046 C101.590,38.046 101.424,38.046 101.257,38.046 C101.257,38.546 101.257,39.047 101.257,39.547 C101.090,39.547 100.923,39.547 100.756,39.547 C100.756,40.214 100.756,40.881 100.756,41.547 C100.589,41.547 100.422,41.547 100.256,41.547 C100.089,43.048 99.922,44.549 99.755,46.049 C99.588,46.049 99.421,46.049 99.254,46.049 C99.421,49.717 99.588,53.386 99.755,57.053 C99.588,57.053 99.421,57.053 99.254,57.053 C99.254,57.720 99.254,58.387 99.254,59.054 C99.088,59.054 98.921,59.054 98.754,59.054 C98.754,59.388 98.754,59.721 98.754,60.055 C98.587,60.055 98.420,60.055 98.253,60.055 C98.253,60.555 98.253,61.055 98.253,61.555 C98.086,61.555 97.920,61.555 97.753,61.555 C97.753,63.056 97.753,64.557 97.753,66.057 C97.586,66.057 97.419,66.057 97.252,66.057 C97.252,67.224 97.252,68.391 97.252,69.558 C97.085,69.558 96.918,69.558 96.752,69.558 C96.752,70.392 96.752,71.226 96.752,72.059 C96.585,72.059 96.418,72.059 96.251,72.059 C96.251,73.560 96.251,75.061 96.251,76.561 C96.084,76.561 95.917,76.561 95.750,76.561 C95.750,77.228 95.750,77.895 95.750,78.562 C95.584,78.562 95.417,78.562 95.250,78.562 C95.083,82.063 94.916,85.565 94.749,89.066 C94.582,89.066 94.416,89.066 94.249,89.066 C94.249,89.566 94.249,90.066 94.249,90.567 C94.082,90.567 93.915,90.567 93.748,90.567 C93.581,91.734 93.414,92.901 93.248,94.068 C93.081,94.068 92.914,94.068 92.747,94.068 C92.747,94.401 92.747,94.735 92.747,95.068 C92.580,95.068 92.413,95.068 92.246,95.068 C92.246,96.569 92.246,98.070 92.246,99.570 C92.080,99.570 91.913,99.570 91.746,99.570 C91.746,100.237 91.746,100.904 91.746,101.571 C91.579,101.571 91.412,101.571 91.245,101.571 C91.245,102.238 91.245,102.905 91.245,103.572 C91.078,103.572 90.912,103.572 90.745,103.572 C90.745,104.739 90.745,105.906 90.745,107.073 C90.578,107.073 90.411,107.073 90.244,107.073 C90.244,107.740 90.244,108.407 90.244,109.074 C90.077,109.074 89.910,109.074 89.744,109.074 C89.744,109.741 89.744,110.408 89.744,111.075 C89.577,111.075 89.410,111.075 89.243,111.075 C89.243,112.408 89.243,113.742 89.243,115.076 C89.076,115.076 88.909,115.076 88.742,115.076 C88.742,115.743 88.742,116.410 88.742,117.077 C88.576,117.077 88.409,117.077 88.242,117.077 C88.242,117.577 88.242,118.077 88.242,118.577 C88.075,118.577 87.908,118.577 87.741,118.577 C87.408,121.078 87.074,123.580 86.740,126.080 C86.573,126.080 86.406,126.080 86.239,126.080 C86.073,127.414 85.906,128.748 85.739,130.082 C85.572,130.082 85.405,130.082 85.238,130.082 C85.238,130.749 85.238,131.416 85.238,132.083 C85.072,132.083 84.905,132.083 84.738,132.083 C84.738,132.750 84.738,133.417 84.738,134.083 C84.571,134.083 84.404,134.083 84.237,134.083 C84.237,134.750 84.237,135.417 84.237,136.084 C84.070,136.084 83.903,136.084 83.737,136.084 C83.737,136.751 83.737,137.418 83.737,138.085 C83.570,138.085 83.403,138.085 83.236,138.085 C83.236,138.585 83.236,139.085 83.236,139.586 C83.069,139.586 82.902,139.586 82.735,139.586 C82.735,140.252 82.735,140.920 82.735,141.586 C82.569,141.586 82.402,141.586 82.235,141.586 C82.235,142.087 82.235,142.587 82.235,143.087 C82.068,143.087 81.901,143.087 81.734,143.087 C81.734,143.754 81.734,144.421 81.734,145.088 C81.567,145.088 81.401,145.088 81.234,145.088 C81.234,145.588 81.234,146.088 81.234,146.588 C81.067,146.588 80.900,146.588 80.733,146.588 C80.733,146.922 80.733,147.255 80.733,147.589 C80.566,147.589 80.399,147.589 80.233,147.589 C80.233,148.089 80.233,148.589 80.233,149.089 C79.899,149.256 79.565,149.423 79.231,149.590 C79.231,149.923 79.231,150.256 79.231,150.590 C79.065,150.590 78.898,150.590 78.731,150.590 C78.564,154.591 78.397,158.593 78.230,162.595 C78.063,162.595 77.897,162.595 77.730,162.595 C77.730,163.095 77.730,163.595 77.730,164.095 C77.563,164.095 77.396,164.095 77.229,164.095 C77.229,164.595 77.229,165.096 77.229,165.596 C77.062,165.596 76.895,165.596 76.729,165.596 C76.729,166.096 76.729,166.596 76.729,167.096 C76.562,167.096 76.395,167.096 76.228,167.096 C76.061,168.764 75.894,170.431 75.727,172.098 C75.561,172.098 75.394,172.098 75.227,172.098 C75.227,172.432 75.227,172.765 75.227,173.099 C75.060,173.099 74.893,173.099 74.726,173.099 C74.559,173.766 74.393,174.433 74.226,175.099 C74.059,175.099 73.892,175.099 73.725,175.099 C73.725,175.600 73.725,176.100 73.725,176.600 C73.558,176.600 73.391,176.600 73.225,176.600 C73.058,179.101 72.891,181.602 72.724,184.103 C72.557,184.103 72.390,184.103 72.223,184.103 C71.890,185.103 71.556,186.104 71.222,187.104 C71.055,187.104 70.889,187.104 70.722,187.104 C70.722,187.438 70.722,187.771 70.722,188.105 C70.555,188.105 70.388,188.105 70.221,188.105 C70.221,188.438 70.221,188.772 70.221,189.105 C70.054,189.105 69.887,189.105 69.721,189.105 C69.721,189.605 69.721,190.105 69.721,190.606 C69.554,190.606 69.387,190.606 69.220,190.606 C69.220,191.106 69.220,191.606 69.220,192.106 C69.053,192.106 68.886,192.106 68.719,192.106 C68.719,192.606 68.719,193.107 68.719,193.607 C68.553,193.607 68.386,193.607 68.219,193.607 C68.219,194.107 68.219,194.607 68.219,195.107 C68.052,195.107 67.885,195.107 67.718,195.107 C67.718,195.607 67.718,196.108 67.718,196.608 C67.551,196.608 67.385,196.608 67.218,196.608 C67.218,196.941 67.218,197.275 67.218,197.608 C67.051,197.608 66.884,197.608 66.717,197.608 C66.717,198.108 66.717,198.609 66.717,199.109 C66.550,199.109 66.383,199.109 66.217,199.109 C66.217,199.442 66.217,199.776 66.217,200.109 C66.050,200.109 65.883,200.109 65.716,200.109 C65.716,200.609 65.716,201.110 65.716,201.610 C65.549,201.610 65.382,201.610 65.215,201.610 C65.215,203.777 65.215,205.945 65.215,208.112 C65.049,208.112 64.882,208.112 64.715,208.112 C64.715,208.612 64.715,209.113 64.715,209.613 C64.548,209.613 64.381,209.613 64.214,209.613 C64.047,210.280 63.881,210.947 63.714,211.614 C63.547,211.614 63.380,211.614 63.213,211.614 C62.879,213.614 62.546,215.615 62.212,217.616 C62.045,217.616 61.878,217.616 61.711,217.616 C61.711,218.116 61.711,218.616 61.711,219.117 C61.545,219.117 61.378,219.117 61.211,219.117 C61.211,219.450 61.211,219.784 61.211,220.117 C61.044,220.117 60.877,220.117 60.710,220.117 C60.710,220.617 60.710,221.117 60.710,221.618 C60.543,221.618 60.376,221.618 60.210,221.618 C60.210,222.951 60.210,224.285 60.210,225.619 C59.538,227.788 58.407,228.852 58.207,231.622 C59.248,232.169 59.094,232.427 60.710,232.622 C61.766,231.337 63.277,231.069 64.715,230.121 C64.882,229.787 65.049,229.454 65.215,229.121 C65.883,228.954 66.550,228.787 67.218,228.620 C67.218,228.454 67.218,228.287 67.218,228.120 C67.885,227.953 68.553,227.787 69.220,227.620 C69.220,227.453 69.220,227.286 69.220,227.120 C69.721,227.120 70.221,227.120 70.722,227.120 C70.722,226.953 70.722,226.786 70.722,226.620 C71.389,226.620 72.057,226.620 72.724,226.620 C72.724,226.453 72.724,226.286 72.724,226.119 C77.229,225.953 81.735,225.786 86.239,225.619 C89.576,225.619 92.914,225.619 96.251,225.619 C96.251,225.786 96.251,225.953 96.251,226.119 C96.751,226.119 97.252,226.119 97.753,226.119 C97.753,226.286 97.753,226.453 97.753,226.620 C98.086,226.620 98.420,226.620 98.754,226.620 C98.754,226.786 98.754,226.953 98.754,227.120 C100.255,227.453 101.757,227.787 103.259,228.120 C103.259,228.287 103.259,228.454 103.259,228.620 C103.926,228.787 104.594,228.954 105.261,229.121 C105.261,229.287 105.261,229.454 105.261,229.621 C105.595,229.621 105.929,229.621 106.262,229.621 C106.429,229.954 106.596,230.288 106.763,230.621 C107.430,230.788 108.098,230.955 108.765,231.121 C109.099,231.621 109.433,232.122 109.766,232.622 C110.100,232.622 110.434,232.622 110.768,232.622 C111.101,233.122 111.435,233.622 111.769,234.122 C112.102,234.122 112.436,234.122 112.770,234.122 C113.270,234.789 113.771,235.456 114.272,236.123 C116.411,237.660 118.461,238.811 120.279,240.625 C122.148,242.491 122.656,244.386 126.285,244.627 C127.286,243.793 128.288,242.959 129.289,242.126 C129.623,241.625 129.956,241.125 130.290,240.625 C130.624,240.625 130.957,240.625 131.291,240.625 C131.792,239.958 132.292,239.291 132.793,238.624 C133.460,238.458 134.128,238.291 134.795,238.124 C134.795,237.957 134.795,237.791 134.795,237.624 C136.964,237.457 139.134,237.290 141.303,237.124 C141.469,236.790 141.636,236.457 141.803,236.123 C142.137,236.123 142.471,236.123 142.804,236.123 C142.971,235.790 143.138,235.456 143.305,235.123 C143.472,235.123 143.639,235.123 143.805,235.123 C143.805,234.789 143.805,234.456 143.805,234.122 C143.972,234.122 144.139,234.122 144.306,234.122 C144.306,233.789 144.306,233.456 144.306,233.122 C144.473,233.122 144.640,233.122 144.807,233.122 C144.807,232.455 144.807,231.788 144.807,231.121 C144.973,231.121 145.140,231.121 145.307,231.121 C145.307,230.621 145.307,230.121 145.307,229.621 C145.474,229.621 145.641,229.621 145.808,229.621 C145.808,228.954 145.808,228.287 145.808,227.620 C145.975,227.620 146.142,227.620 146.308,227.620 C146.475,226.453 146.642,225.286 146.809,224.119 C146.976,224.119 147.143,224.119 147.310,224.119 C147.310,223.618 147.310,223.118 147.310,222.618 C147.476,222.618 147.643,222.618 147.810,222.618 C147.810,222.118 147.810,221.618 147.810,221.117 C147.977,221.117 148.144,221.117 148.311,221.117 C148.478,220.451 148.644,219.783 148.811,219.117 C148.978,219.117 149.145,219.117 149.312,219.117 C149.479,218.116 149.646,217.116 149.812,216.115 C149.979,216.115 150.146,216.115 150.313,216.115 C150.313,215.282 150.313,214.448 150.313,213.614 C150.480,213.614 150.647,213.614 150.814,213.614 C150.980,212.447 151.147,211.280 151.314,210.113 C151.481,210.113 151.648,210.113 151.815,210.113 C151.815,209.780 151.815,209.446 151.815,209.113 C151.982,209.113 152.148,209.113 152.315,209.113 C152.315,208.613 152.315,208.112 152.315,207.612 C152.482,207.612 152.649,207.612 152.816,207.612 C153.150,206.612 153.483,205.611 153.817,204.611 C153.984,204.611 154.151,204.611 154.318,204.611 C154.318,204.278 154.318,203.944 154.318,203.611 C154.484,203.611 154.651,203.611 154.818,203.611 C154.985,202.944 155.152,202.277 155.319,201.610 C155.486,201.610 155.652,201.610 155.819,201.610 C155.819,201.110 155.819,200.609 155.819,200.109 C155.986,200.109 156.153,200.109 156.320,200.109 C156.487,199.442 156.654,198.775 156.820,198.108 C156.987,198.108 157.154,198.108 157.321,198.108 C157.321,197.608 157.321,197.108 157.321,196.608 C157.488,196.608 157.655,196.608 157.822,196.608 C157.822,196.274 157.822,195.941 157.822,195.607 C157.988,195.607 158.155,195.607 158.322,195.607 C158.489,194.274 158.656,192.940 158.823,191.606 C158.990,191.606 159.156,191.606 159.323,191.606 C159.323,191.272 159.323,190.939 159.323,190.606 C159.490,190.606 159.657,190.606 159.824,190.606 C159.824,190.105 159.824,189.605 159.824,189.105 C159.991,189.105 160.158,189.105 160.324,189.105 C160.491,188.438 160.658,187.771 160.825,187.104 C160.992,187.104 161.159,187.104 161.326,187.104 C161.492,186.437 161.659,185.770 161.826,185.103 C162.160,184.937 162.494,184.770 162.827,184.603 C162.827,184.270 162.827,183.936 162.827,183.603 C163.328,183.269 163.829,182.936 164.329,182.602 C164.496,181.936 164.663,181.268 164.830,180.602 C164.996,180.602 165.163,180.602 165.330,180.602 C165.330,180.268 165.330,179.935 165.330,179.601 C165.497,179.601 165.664,179.601 165.831,179.601 C165.831,179.268 165.831,178.934 165.831,178.601 C165.998,178.601 166.164,178.601 166.331,178.601 C166.331,178.267 166.331,177.934 166.331,177.600 C166.498,177.600 166.665,177.600 166.832,177.600 C166.832,177.100 166.832,176.600 166.832,176.100 C166.999,176.100 167.166,176.100 167.332,176.100 C167.499,175.600 167.666,175.099 167.833,174.599 C168.167,174.433 168.501,174.266 168.834,174.099 C168.834,173.599 168.834,173.099 168.834,172.599 C169.001,172.599 169.168,172.599 169.335,172.599 C169.502,171.932 169.668,171.265 169.835,170.598 C170.002,170.598 170.169,170.598 170.336,170.598 C170.336,170.098 170.336,169.597 170.336,169.097 C170.503,169.097 170.670,169.097 170.836,169.097 C170.836,168.764 170.836,168.430 170.836,168.097 C171.170,167.930 171.504,167.763 171.838,167.597 C171.838,167.263 171.838,166.930 171.838,166.596 C172.004,166.596 172.171,166.596 172.338,166.596 C172.505,165.596 172.672,164.595 172.839,163.595 C173.006,163.595 173.173,163.595 173.339,163.595 C173.506,162.761 173.673,161.928 173.840,161.094 C174.007,161.094 174.174,161.094 174.341,161.094 C174.507,160.427 174.674,159.760 174.841,159.093 C175.008,159.093 175.175,159.093 175.342,159.093 C175.342,158.593 175.342,158.093 175.342,157.593 C175.508,157.593 175.675,157.593 175.842,157.593 C175.842,157.259 175.842,156.926 175.842,156.592 C176.176,156.426 176.510,156.259 176.843,156.092 C176.843,155.759 176.843,155.425 176.843,155.092 C177.177,154.925 177.511,154.758 177.845,154.591 C177.845,154.258 177.845,153.925 177.845,153.591 C178.011,153.591 178.178,153.591 178.345,153.591 C178.345,153.258 178.345,152.924 178.345,152.591 C178.679,152.424 179.013,152.257 179.346,152.091 C179.680,151.090 180.014,150.090 180.347,149.089 C180.681,148.923 181.015,148.756 181.349,148.589 C181.515,148.089 181.682,147.589 181.849,147.089 C182.016,147.089 182.183,147.089 182.350,147.089 C182.350,146.755 182.350,146.422 182.350,146.088 C182.517,146.088 182.683,146.088 182.850,146.088 C182.850,145.755 182.850,145.421 182.850,145.088 C183.017,145.088 183.184,145.088 183.351,145.088 C183.351,144.754 183.351,144.421 183.351,144.087 C183.518,144.087 183.685,144.087 183.851,144.087 C183.851,143.587 183.851,143.087 183.851,142.587 C184.018,142.587 184.185,142.587 184.352,142.587 C184.352,142.087 184.352,141.586 184.352,141.086 C184.519,141.086 184.686,141.086 184.853,141.086 C184.853,140.753 184.853,140.419 184.853,140.086 C185.019,140.086 185.186,140.086 185.353,140.086 C185.353,139.752 185.353,139.419 185.353,139.085 C185.687,138.919 186.021,138.752 186.354,138.585 C186.688,138.085 187.022,137.585 187.355,137.085 C187.522,137.085 187.689,137.085 187.856,137.085 C187.856,136.751 187.856,136.418 187.856,136.084 C188.690,135.417 189.525,134.750 190.359,134.083 C190.526,133.417 190.693,132.750 190.859,132.083 C191.360,131.749 191.861,131.416 192.361,131.082 C192.361,130.749 192.361,130.415 192.361,130.082 C192.695,129.915 193.029,129.748 193.362,129.582 C193.362,129.248 193.362,128.915 193.362,128.581 C193.696,128.415 194.030,128.248 194.363,128.081 C194.530,127.414 194.697,126.747 194.864,126.080 C195.198,125.914 195.531,125.747 195.865,125.580 C195.865,125.247 195.865,124.913 195.865,124.580 C197.200,123.413 198.535,122.245 199.870,121.078 C199.870,120.745 199.870,120.411 199.870,120.078 C200.370,119.745 200.871,119.411 201.371,119.078 C201.371,118.744 201.371,118.411 201.371,118.077 C202.039,117.577 202.706,117.077 203.374,116.577 C203.374,116.243 203.374,115.910 203.374,115.576 C205.543,113.576 207.712,111.575 209.881,109.574 C209.881,109.241 209.881,108.907 209.881,108.574 C210.215,108.407 210.549,108.240 210.882,108.073 C210.882,107.740 210.882,107.406 210.882,107.073 C211.383,106.740 211.884,106.406 212.384,106.073 C212.384,105.739 212.384,105.406 212.384,105.072 C212.885,104.739 213.385,104.405 213.886,104.072 C214.887,102.905 215.888,101.737 216.889,100.570 C217.390,100.404 217.890,100.237 218.391,100.070 C218.558,99.737 218.725,99.403 218.892,99.070 C219.726,98.403 220.560,97.736 221.394,97.069 C221.394,96.736 221.394,96.402 221.394,96.069 C222.395,95.235 223.397,94.401 224.398,93.568 C224.565,93.234 224.732,92.901 224.898,92.567 C225.232,92.567 225.566,92.567 225.900,92.567 C226.400,91.900 226.901,91.233 227.401,90.567 C227.735,90.567 228.069,90.567 228.402,90.567 C228.903,89.900 229.404,89.233 229.904,88.566 C230.238,88.566 230.572,88.566 230.905,88.566 C231.740,87.565 232.574,86.565 233.408,85.565 C233.909,85.398 234.409,85.231 234.910,85.064 C235.244,84.564 235.577,84.064 235.911,83.564 C236.245,83.564 236.579,83.564 236.912,83.564 C237.079,83.230 237.246,82.897 237.413,82.563 C237.746,82.563 238.080,82.563 238.414,82.563 C238.748,82.063 239.081,81.563 239.415,81.063 C239.749,81.063 240.083,81.063 240.416,81.063 C243.253,78.062 246.090,75.060 248.926,72.059 C251.595,69.559 254.266,67.057 256.935,64.556 C257.936,64.223 258.938,63.889 259.939,63.556 C260.272,63.056 260.606,62.556 260.940,62.055 C261.273,62.055 261.607,62.055 261.941,62.055 C262.108,61.722 262.275,61.388 262.442,61.055 C263.943,60.722 265.445,60.388 266.947,60.055 C266.947,59.888 266.947,59.721 266.947,59.554 C267.614,59.388 268.282,59.221 268.949,59.054 C269.116,58.721 269.283,58.387 269.450,58.054 C269.783,58.054 270.117,58.054 270.451,58.054 C270.451,57.887 270.451,57.720 270.451,57.554 C272.620,57.387 274.789,57.220 276.958,57.053 C276.958,56.887 276.958,56.720 276.958,56.553 C277.792,56.387 278.627,56.220 279.461,56.053 C279.461,55.886 279.461,55.720 279.461,55.553 C280.128,55.386 280.796,55.219 281.463,55.053 C281.463,54.886 281.463,54.719 281.463,54.553 C283.132,54.219 284.801,53.886 286.469,53.552 C286.469,53.385 286.469,53.219 286.469,53.052 C286.970,53.052 287.470,53.052 287.971,53.052 C287.971,52.885 287.971,52.718 287.971,52.552 C288.471,52.552 288.972,52.552 289.473,52.552 C289.473,52.385 289.473,52.218 289.473,52.052 C290.140,52.052 290.807,52.052 291.475,52.052 C291.475,51.885 291.475,51.718 291.475,51.551 C292.810,51.385 294.145,51.218 295.479,51.051 C295.479,50.884 295.479,50.718 295.479,50.551 C297.315,50.384 299.150,50.217 300.986,50.051 C300.986,50.217 300.986,50.384 300.986,50.551 C303.822,50.384 306.659,50.217 309.495,50.051 C309.495,50.217 309.495,50.384 309.495,50.551 C309.996,50.551 310.497,50.551 310.997,50.551 C310.997,50.718 310.997,50.884 310.997,51.051 C311.665,51.051 312.332,51.051 312.999,51.051 C312.999,51.218 312.999,51.385 312.999,51.551 C313.500,51.551 314.001,51.551 314.501,51.551 C316.336,52.718 318.172,53.886 320.008,55.053 C320.008,55.386 320.008,55.720 320.008,56.053 C320.341,56.220 320.675,56.387 321.009,56.553 C321.009,56.887 321.009,57.220 321.009,57.554 C321.175,57.554 321.342,57.554 321.509,57.554 C321.509,57.887 321.509,58.221 321.509,58.554 C321.676,58.554 321.843,58.554 322.010,58.554 C322.010,59.054 322.010,59.555 322.010,60.055 C322.177,60.055 322.344,60.055 322.510,60.055 C323.545,63.281 321.450,70.081 320.508,71.559 C320.174,71.726 319.841,71.893 319.507,72.059 C319.507,72.393 319.507,72.726 319.507,73.060 C319.006,73.226 318.506,73.393 318.005,73.560 C317.838,73.893 317.671,74.227 317.505,74.560 C316.003,74.727 314.501,74.894 312.999,75.060 C312.999,75.227 312.999,75.394 312.999,75.561 C312.499,75.561 311.998,75.561 311.498,75.561 C311.498,75.727 311.498,75.894 311.498,76.061 C310.830,76.228 310.163,76.394 309.495,76.561 C309.495,76.728 309.495,76.895 309.495,77.061 C308.995,77.061 308.494,77.061 307.994,77.061 C307.994,77.228 307.994,77.395 307.994,77.561 C307.326,77.561 306.659,77.561 305.991,77.561 C305.991,77.728 305.991,77.895 305.991,78.062 C304.657,78.228 303.322,78.395 301.987,78.562 C301.987,78.729 301.987,78.895 301.987,79.062 C301.653,79.062 301.319,79.062 300.986,79.062 C300.986,79.229 300.986,79.396 300.986,79.562 C300.485,79.562 299.985,79.562 299.484,79.562 C299.484,79.729 299.484,79.896 299.484,80.062 C298.483,80.229 297.482,80.396 296.481,80.563 C296.481,80.729 296.481,80.896 296.481,81.063 C295.646,81.230 294.812,81.396 293.978,81.563 C293.978,81.730 293.978,81.897 293.978,82.063 C293.644,82.063 293.310,82.063 292.977,82.063 C292.977,82.230 292.977,82.397 292.977,82.563 C292.309,82.730 291.642,82.897 290.974,83.064 C290.974,83.230 290.974,83.397 290.974,83.564 C289.973,83.731 288.972,83.897 287.971,84.064 C287.971,84.231 287.971,84.397 287.971,84.564 C287.637,84.564 287.303,84.564 286.970,84.564 C286.970,84.731 286.970,84.898 286.970,85.064 C286.135,85.231 285.301,85.398 284.467,85.565 C284.300,85.898 284.133,86.232 283.966,86.565 C283.299,86.732 282.631,86.898 281.964,87.065 C281.797,87.399 281.630,87.732 281.463,88.066 C281.130,88.066 280.796,88.066 280.462,88.066 C280.295,88.399 280.128,88.733 279.962,89.066 C279.628,89.066 279.294,89.066 278.960,89.066 C278.794,89.399 278.627,89.733 278.460,90.066 C278.126,90.066 277.792,90.066 277.459,90.066 C277.459,90.233 277.459,90.400 277.459,90.567 C276.958,90.733 276.458,90.900 275.957,91.067 C275.790,91.400 275.623,91.734 275.456,92.067 C275.123,92.067 274.789,92.067 274.455,92.067 C274.122,92.567 273.788,93.068 273.454,93.568 C273.120,93.568 272.787,93.568 272.453,93.568 C271.952,94.235 271.452,94.902 270.951,95.568 C270.451,95.735 269.950,95.902 269.450,96.069 C269.283,96.402 269.116,96.736 268.949,97.069 C268.615,97.069 268.282,97.069 267.948,97.069 C267.781,97.403 267.614,97.736 267.447,98.069 C266.780,98.236 266.112,98.403 265.445,98.570 C265.278,98.903 265.111,99.237 264.944,99.570 C264.611,99.570 264.277,99.570 263.943,99.570 C263.610,100.070 263.276,100.570 262.942,101.071 C262.608,101.071 262.275,101.071 261.941,101.071 C259.939,103.238 257.936,105.406 255.934,107.573 C255.600,107.573 255.267,107.573 254.933,107.573 C254.599,108.073 254.265,108.574 253.932,109.074 C252.597,110.241 251.262,111.408 249.927,112.575 C249.927,112.909 249.927,113.242 249.927,113.576 C249.760,113.576 249.593,113.576 249.427,113.576 C249.093,114.076 248.759,114.576 248.425,115.076 C245.255,118.077 242.085,121.079 238.915,124.080 C238.915,124.413 238.915,124.747 238.915,125.080 C238.247,125.580 237.580,126.080 236.912,126.581 C236.912,126.914 236.912,127.248 236.912,127.581 C235.244,129.081 233.575,130.582 231.907,132.083 C231.907,132.416 231.907,132.750 231.907,133.083 C231.740,133.083 231.573,133.083 231.406,133.083 C231.072,133.583 230.738,134.084 230.405,134.584 C229.737,135.084 229.070,135.584 228.402,136.084 C228.402,136.418 228.402,136.751 228.402,137.085 C228.069,137.251 227.735,137.418 227.401,137.585 C227.234,138.252 227.068,138.919 226.901,139.586 C226.734,139.586 226.567,139.586 226.400,139.586 C226.233,140.086 226.066,140.586 225.900,141.086 C225.566,141.253 225.232,141.420 224.898,141.586 C224.898,141.920 224.898,142.253 224.898,142.587 C223.897,143.420 222.896,144.254 221.895,145.088 C221.895,145.421 221.895,145.755 221.895,146.088 C221.061,146.755 220.226,147.422 219.392,148.089 C219.392,148.422 219.392,148.756 219.392,149.089 C218.725,149.589 218.057,150.090 217.390,150.590 C217.390,150.923 217.390,151.257 217.390,151.590 C217.056,151.757 216.722,151.924 216.389,152.091 C216.222,152.591 216.055,153.091 215.888,153.591 C215.721,153.591 215.554,153.591 215.388,153.591 C215.388,153.925 215.388,154.258 215.388,154.591 C215.054,154.758 214.720,154.925 214.386,155.092 C214.386,155.425 214.386,155.759 214.386,156.092 C214.053,156.259 213.719,156.426 213.385,156.592 C213.385,156.926 213.385,157.259 213.385,157.593 C212.885,157.926 212.384,158.260 211.884,158.593 C211.884,158.926 211.884,159.260 211.884,159.593 C211.383,159.927 210.882,160.260 210.382,160.594 C210.382,160.927 210.382,161.261 210.382,161.594 C210.048,161.761 209.714,161.928 209.381,162.094 C209.381,162.428 209.381,162.761 209.381,163.095 C209.047,163.262 208.713,163.428 208.380,163.595 C208.213,164.095 208.046,164.595 207.879,165.096 C207.712,165.096 207.545,165.096 207.378,165.096 C207.212,165.762 207.045,166.429 206.878,167.096 C206.544,167.263 206.210,167.430 205.877,167.597 C205.877,167.930 205.877,168.264 205.877,168.597 C205.376,168.930 204.875,169.264 204.375,169.597 C204.375,169.931 204.375,170.264 204.375,170.598 C203.040,171.765 201.705,172.932 200.370,174.099 C200.370,174.433 200.370,174.766 200.370,175.099 C200.037,175.266 199.703,175.433 199.369,175.600 C199.369,175.933 199.369,176.267 199.369,176.600 C199.202,176.600 199.035,176.600 198.869,176.600 C198.869,176.933 198.869,177.267 198.869,177.600 C198.702,177.600 198.535,177.600 198.368,177.600 C198.368,178.267 198.368,178.934 198.368,179.601 C198.201,179.601 198.034,179.601 197.867,179.601 C197.867,180.101 197.867,180.602 197.867,181.102 C197.701,181.102 197.534,181.102 197.367,181.102 C197.367,181.435 197.367,181.769 197.367,182.102 C197.033,182.269 196.699,182.436 196.366,182.602 C196.366,182.936 196.366,183.269 196.366,183.603 C195.865,183.936 195.365,184.270 194.864,184.603 C194.864,184.937 194.864,185.270 194.864,185.604 C194.530,185.770 194.197,185.937 193.863,186.104 C193.696,186.771 193.529,187.438 193.362,188.105 C193.195,188.105 193.029,188.105 192.862,188.105 C192.528,189.105 192.194,190.105 191.861,191.106 C191.694,191.106 191.527,191.106 191.360,191.106 C191.360,191.606 191.360,192.106 191.360,192.606 C191.193,192.606 191.026,192.606 190.859,192.606 C190.859,192.940 190.859,193.273 190.859,193.607 C190.693,193.607 190.526,193.607 190.359,193.607 C190.192,194.607 190.025,195.608 189.858,196.608 C189.691,196.608 189.525,196.608 189.358,196.608 C189.191,197.275 189.024,197.942 188.857,198.609 C188.690,198.609 188.523,198.609 188.357,198.609 C188.357,199.109 188.357,199.609 188.357,200.109 C188.190,200.109 188.023,200.109 187.856,200.109 C187.856,200.443 187.856,200.776 187.856,201.110 C187.689,201.110 187.522,201.110 187.355,201.110 C187.355,201.610 187.355,202.110 187.355,202.610 C187.189,202.610 187.022,202.610 186.855,202.610 C186.688,203.777 186.521,204.945 186.354,206.112 C186.187,206.112 186.021,206.112 185.854,206.112 C185.353,207.612 184.853,209.113 184.352,210.613 C184.185,210.613 184.018,210.613 183.851,210.613 C183.685,211.280 183.518,211.947 183.351,212.614 C183.184,212.614 183.017,212.614 182.850,212.614 C182.683,213.614 182.517,214.615 182.350,215.615 C182.183,215.615 182.016,215.615 181.849,215.615 C181.849,215.949 181.849,216.282 181.849,216.616 C181.682,216.616 181.515,216.616 181.349,216.616 C181.182,217.949 181.015,219.283 180.848,220.617 C180.681,220.617 180.514,220.617 180.347,220.617 C180.181,221.618 180.014,222.618 179.847,223.618 C179.680,223.618 179.513,223.618 179.346,223.618 C179.346,223.952 179.346,224.285 179.346,224.619 C179.179,224.619 179.013,224.619 178.846,224.619 C178.512,226.619 178.178,228.621 177.845,230.621 C177.678,230.621 177.511,230.621 177.344,230.621 C177.344,231.288 177.344,231.955 177.344,232.622 C177.177,232.622 177.010,232.622 176.843,232.622 C176.677,233.455 176.510,234.289 176.343,235.123 C176.176,235.123 176.009,235.123 175.842,235.123 C175.465,235.903 174.361,238.313 174.841,239.625 C175.008,239.625 175.175,239.625 175.342,239.625 C175.342,239.958 175.342,240.292 175.342,240.625 C176.922,242.788 182.783,241.197 185.854,242.126 C185.854,242.292 185.854,242.459 185.854,242.626 C186.521,242.626 187.189,242.626 187.856,242.626 C187.856,242.793 187.856,242.959 187.856,243.126 C188.357,243.126 188.857,243.126 189.358,243.126 C189.358,243.293 189.358,243.459 189.358,243.626 C190.025,243.626 190.693,243.626 191.360,243.626 C191.360,243.793 191.360,243.960 191.360,244.126 C193.529,244.293 195.699,244.460 197.867,244.627 C197.867,244.793 197.867,244.960 197.867,245.127 C200.036,245.127 202.206,245.127 204.375,245.127 C204.375,245.293 204.375,245.460 204.375,245.627 C206.043,245.627 207.712,245.627 209.381,245.627 C209.381,245.794 209.381,245.960 209.381,246.127 C210.215,246.127 211.049,246.127 211.884,246.127 C211.884,246.294 211.884,246.461 211.884,246.627 C212.384,246.627 212.885,246.627 213.385,246.627 C213.385,246.794 213.385,246.961 213.385,247.128 C213.886,247.128 214.386,247.128 214.887,247.128 C214.887,247.294 214.887,247.461 214.887,247.628 C215.388,247.628 215.888,247.628 216.389,247.628 C216.389,247.794 216.389,247.961 216.389,248.128 C216.889,248.128 217.390,248.128 217.890,248.128 C217.890,248.295 217.890,248.461 217.890,248.628 C218.891,248.628 219.893,248.628 220.894,248.628 C220.894,248.795 220.894,248.962 220.894,249.128 C222.395,249.128 223.897,249.128 225.399,249.128 C225.399,249.295 225.399,249.462 225.399,249.629 C228.235,249.629 231.072,249.629 233.909,249.629 C233.909,249.462 233.909,249.295 233.909,249.128 C239.748,249.295 245.589,249.462 251.429,249.629 C254.432,250.629 257.436,251.629 260.439,252.630 C265.111,252.796 269.784,252.963 274.455,253.130 C275.224,251.906 275.068,252.818 275.957,252.129 C276.124,251.796 276.291,251.463 276.458,251.129 C276.624,251.129 276.791,251.129 276.958,251.129 C277.292,250.129 277.626,249.128 277.959,248.128 C278.293,247.961 278.627,247.794 278.960,247.628 C278.960,247.294 278.960,246.961 278.960,246.627 C279.127,246.627 279.294,246.627 279.461,246.627 C279.461,246.294 279.461,245.960 279.461,245.627 C279.628,245.627 279.795,245.627 279.962,245.627 C279.962,244.960 279.962,244.293 279.962,243.626 C280.128,243.626 280.295,243.626 280.462,243.626 C280.462,243.293 280.462,242.959 280.462,242.626 C280.629,242.626 280.796,242.626 280.963,242.626 C281.630,239.792 282.298,236.957 282.965,234.122 C283.132,234.122 283.299,234.122 283.466,234.122 C283.799,233.122 284.133,232.122 284.467,231.121 C284.634,231.121 284.800,231.121 284.967,231.121 C285.134,230.454 285.301,229.787 285.468,229.121 C285.802,228.954 286.135,228.787 286.469,228.620 C286.636,227.953 286.803,227.286 286.970,226.620 C287.136,226.620 287.303,226.620 287.470,226.620 C287.470,226.286 287.470,225.953 287.470,225.619 C287.637,225.619 287.804,225.619 287.971,225.619 C287.971,225.286 287.971,224.952 287.971,224.619 C288.138,224.619 288.305,224.619 288.471,224.619 C288.471,224.285 288.471,223.952 288.471,223.618 L289.473,222.618 C289.473,222.285 289.473,221.951 289.473,221.618 C289.806,221.451 290.140,221.284 290.474,221.117 C290.640,220.617 290.807,220.117 290.974,219.617 C291.642,219.117 292.309,218.616 292.977,218.116 C292.977,217.783 292.977,217.449 292.977,217.116 C293.477,216.782 293.978,216.449 294.478,216.115 C294.478,215.782 294.478,215.448 294.478,215.115 C294.979,214.782 295.479,214.448 295.980,214.115 C295.980,213.781 295.980,213.448 295.980,213.114 C296.269,212.727 299.450,210.787 299.985,210.613 C303.366,209.517 308.497,211.554 309.996,212.614 C310.497,213.281 310.997,213.948 311.498,214.615 C311.831,214.782 312.165,214.948 312.499,215.115 C312.499,215.448 312.499,215.782 312.499,216.115 C312.833,216.282 313.166,216.449 313.500,216.616 C313.834,217.616 314.168,218.617 314.501,219.617 L315.502,220.617 C315.502,220.951 315.502,221.284 315.502,221.618 C315.836,221.784 316.170,221.951 316.503,222.118 C317.505,225.119 318.506,228.120 319.507,231.121 C319.507,233.622 319.507,236.124 319.507,238.624 C319.340,238.624 319.173,238.624 319.006,238.624 C318.229,241.376 319.150,247.504 319.507,249.629 C320.572,250.235 320.597,250.755 322.010,251.129 C322.010,251.296 322.010,251.463 322.010,251.629 C324.012,251.296 326.015,250.962 328.017,250.629 C328.017,250.462 328.017,250.295 328.017,250.129 C328.684,250.129 329.352,250.129 330.019,250.129 C330.019,249.962 330.019,249.795 330.019,249.629 C330.686,249.629 331.354,249.629 332.021,249.629 C332.021,249.462 332.021,249.295 332.021,249.128 C332.689,249.128 333.356,249.128 334.024,249.128 C334.024,248.962 334.024,248.795 334.024,248.628 C334.691,248.628 335.359,248.628 336.026,248.628 C336.026,248.461 336.026,248.295 336.026,248.128 C336.693,248.128 337.361,248.128 338.028,248.128 C338.028,247.961 338.028,247.794 338.028,247.628 C340.531,247.461 343.034,247.294 345.537,247.128 C345.537,246.961 345.537,246.794 345.537,246.627 C348.039,246.627 350.543,246.627 353.045,246.627 C353.045,246.461 353.045,246.294 353.045,246.127 C353.880,246.127 354.714,246.127 355.548,246.127 C355.548,245.960 355.548,245.794 355.548,245.627 C356.382,245.627 357.217,245.627 358.051,245.627 C358.051,245.460 358.051,245.293 358.051,245.127 C358.718,245.127 359.386,245.127 360.053,245.127 C360.053,244.960 360.053,244.793 360.053,244.627 C360.888,244.627 361.722,244.627 362.556,244.627 C362.556,244.460 362.556,244.293 362.556,244.126 C364.392,244.126 366.227,244.126 368.063,244.126 C368.063,243.960 368.063,243.793 368.063,243.626 C368.730,243.626 369.398,243.626 370.065,243.626 C370.065,243.459 370.065,243.293 370.065,243.126 C370.399,243.126 370.732,243.126 371.066,243.126 C371.066,242.959 371.066,242.793 371.066,242.626 C371.567,242.626 372.067,242.626 372.568,242.626 C372.568,242.459 372.568,242.292 372.568,242.126 C373.068,242.126 373.569,242.126 374.069,242.126 C374.069,241.959 374.069,241.792 374.069,241.625 C374.737,241.625 375.404,241.625 376.072,241.625 C376.072,241.459 376.072,241.292 376.072,241.125 C376.906,241.125 377.740,241.125 378.575,241.125 C378.575,240.958 378.575,240.792 378.575,240.625 C379.409,240.625 380.243,240.625 381.078,240.625 C381.078,240.458 381.078,240.292 381.078,240.125 C382.579,240.125 384.081,240.125 385.583,240.125 C385.583,239.958 385.583,239.791 385.583,239.625 C386.250,239.625 386.918,239.625 387.585,239.625 C387.585,239.458 387.585,239.291 387.585,239.124 C388.252,239.124 388.920,239.124 389.587,239.124 C389.587,238.958 389.587,238.791 389.587,238.624 C390.922,238.624 392.257,238.624 393.592,238.624 C393.592,238.458 393.592,238.291 393.592,238.124 C394.092,238.124 394.593,238.124 395.094,238.124 C395.094,237.957 395.094,237.791 395.094,237.624 C395.928,237.624 396.762,237.624 397.596,237.624 C397.596,237.457 397.596,237.290 397.596,237.124 C399.432,236.790 401.268,236.457 403.103,236.123 C403.103,235.957 403.103,235.790 403.103,235.623 C403.603,235.623 404.104,235.623 404.604,235.623 C404.604,235.456 404.604,235.290 404.604,235.123 C405.105,235.123 405.606,235.123 406.106,235.123 C406.106,234.956 406.106,234.789 406.106,234.623 C406.607,234.623 407.107,234.623 407.608,234.623 C407.608,234.456 407.608,234.289 407.608,234.122 C407.942,234.122 408.275,234.122 408.609,234.122 C408.609,233.956 408.609,233.789 408.609,233.622 C409.110,233.622 409.610,233.622 410.111,233.622 C410.111,233.456 410.111,233.289 410.111,233.122 C410.945,233.122 411.779,233.122 412.614,233.122 C412.614,232.955 412.614,232.789 412.614,232.622 C413.281,232.622 413.949,232.622 414.616,232.622 C414.616,232.455 414.616,232.288 414.616,232.122 C415.283,232.122 415.951,232.122 416.618,232.122 C416.618,231.955 416.618,231.788 416.618,231.622 C417.286,231.622 417.953,231.622 418.621,231.622 C418.621,231.455 418.621,231.288 418.621,231.121 C421.957,230.788 425.295,230.454 428.632,230.121 C428.632,229.954 428.632,229.787 428.632,229.621 C429.299,229.454 429.967,229.287 430.634,229.121 C430.968,228.620 431.302,228.120 431.635,227.620 C431.969,227.620 432.303,227.620 432.637,227.620 C432.803,227.287 432.970,226.953 433.137,226.620 C433.638,226.620 434.138,226.620 434.639,226.620 C434.639,226.453 434.639,226.286 434.639,226.119 C439.144,225.953 443.650,225.786 448.154,225.619 C448.154,225.452 448.154,225.286 448.154,225.119 C448.989,225.119 449.823,225.119 450.657,225.119 C450.657,224.952 450.657,224.785 450.657,224.619 C451.325,224.619 451.992,224.619 452.660,224.619 C452.660,224.452 452.660,224.285 452.660,224.119 C454.662,224.119 456.664,224.119 458.666,224.119 C459.668,224.119 460.669,224.119 461.670,224.119 C461.670,223.952 461.670,223.785 461.670,223.618 C464.062,222.935 466.843,223.960 468.678,224.119 C469.464,225.361 471.396,226.016 472.182,227.120 C472.182,227.453 472.182,227.787 472.182,228.120 C472.516,228.287 472.849,228.454 473.183,228.620 C473.183,228.954 473.183,229.287 473.183,229.621 C473.350,229.621 473.517,229.621 473.684,229.621 C473.684,229.954 473.684,230.288 473.684,230.621 C473.851,230.621 474.017,230.621 474.184,230.621 C474.184,231.121 474.184,231.622 474.184,232.122 C474.351,232.122 474.518,232.122 474.685,232.122 C474.852,233.455 475.019,234.790 475.185,236.123 C475.352,236.123 475.519,236.123 475.686,236.123 C475.686,236.623 475.686,237.124 475.686,237.624 C475.853,237.624 476.020,237.624 476.187,237.624 C476.187,238.291 476.187,238.958 476.187,239.625 C476.353,239.625 476.520,239.625 476.687,239.625 C477.610,242.691 476.221,246.649 475.185,248.128 C474.184,248.962 473.183,249.795 472.182,250.629 C471.681,251.296 471.181,251.963 470.680,252.630 C470.347,252.630 470.013,252.630 469.679,252.630 C469.345,253.130 469.012,253.630 468.678,254.130 C468.344,254.130 468.010,254.130 467.677,254.130 C467.677,254.297 467.677,254.464 467.677,254.630 C466.676,254.797 465.674,254.964 464.673,255.131 C464.673,255.297 464.673,255.464 464.673,255.631 C462.838,255.798 461.002,255.964 459.167,256.131 C459.167,256.298 459.167,256.465 459.167,256.631 C458.667,256.631 458.166,256.631 457.665,256.631 C457.665,256.798 457.665,256.965 457.665,257.131 C457.165,257.131 456.664,257.131 456.164,257.131 C456.164,257.298 456.164,257.465 456.164,257.632 C455.663,257.632 455.162,257.632 454.662,257.632 C454.662,257.798 454.662,257.965 454.662,258.132 C454.161,258.132 453.661,258.132 453.160,258.132 C453.160,258.299 453.160,258.465 453.160,258.632 C451.825,258.632 450.490,258.632 449.156,258.632 C445.819,259.799 442.481,260.966 439.144,262.133 C437.309,262.300 435.473,262.467 433.638,262.634 C433.638,262.800 433.638,262.967 433.638,263.134 C432.470,263.300 431.302,263.467 430.134,263.634 C430.134,263.801 430.134,263.967 430.134,264.134 C429.633,264.134 429.133,264.134 428.632,264.134 C428.632,264.301 428.632,264.468 428.632,264.634 C427.798,264.634 426.963,264.634 426.129,264.634 C426.129,264.801 426.129,264.968 426.129,265.135 C425.629,265.135 425.128,265.135 424.627,265.135 C424.627,265.301 424.627,265.468 424.627,265.635 C423.793,265.635 422.959,265.635 422.125,265.635 C422.125,265.801 422.125,265.968 422.125,266.135 C421.290,266.135 420.456,266.135 419.622,266.135 C419.622,266.302 419.622,266.468 419.622,266.635 C418.954,266.635 418.287,266.635 417.619,266.635 C417.619,266.802 417.619,266.969 417.619,267.135 C416.952,267.135 416.284,267.135 415.617,267.135 C415.617,267.302 415.617,267.469 415.617,267.636 C415.117,267.636 414.616,267.636 414.115,267.636 C414.115,267.802 414.115,267.969 414.115,268.136 C411.946,268.302 409.777,268.469 407.608,268.636 C407.608,268.803 407.608,268.969 407.608,269.136 C406.941,269.136 406.273,269.136 405.606,269.136 C405.606,269.303 405.606,269.470 405.606,269.636 C405.105,269.636 404.604,269.636 404.104,269.636 C404.104,269.803 404.104,269.970 404.104,270.137 C403.603,270.137 403.103,270.137 402.602,270.137 C402.602,270.303 402.602,270.470 402.602,270.637 C399.265,270.803 395.928,270.970 392.591,271.137 C392.591,271.304 392.591,271.470 392.591,271.637 C391.256,271.804 389.921,271.971 388.586,272.137 C388.586,272.304 388.586,272.471 388.586,272.637 C388.252,272.637 387.919,272.637 387.585,272.637 C387.585,272.804 387.585,272.971 387.585,273.138 C386.584,273.304 385.583,273.471 384.582,273.638 C384.582,273.805 384.582,273.971 384.582,274.138 C383.414,274.138 382.245,274.138 381.078,274.138 C381.078,274.305 381.078,274.472 381.078,274.638 C380.577,274.638 380.076,274.638 379.576,274.638 C379.576,274.805 379.576,274.972 379.576,275.138 C379.242,275.138 378.908,275.138 378.575,275.138 C378.575,275.305 378.575,275.472 378.575,275.639 C377.574,275.805 376.572,275.972 375.571,276.139 C375.571,276.306 375.571,276.472 375.571,276.639 C371.901,276.639 368.229,276.639 364.559,276.639 C364.559,276.806 364.559,276.973 364.559,277.139 C363.391,277.139 362.222,277.139 361.055,277.139 C361.055,277.306 361.055,277.473 361.055,277.639 C359.553,277.639 358.051,277.639 356.549,277.639 C356.549,277.806 356.549,277.973 356.549,278.140 C356.216,278.140 355.882,278.140 355.548,278.140 C355.548,278.306 355.548,278.473 355.548,278.640 C354.881,278.640 354.213,278.640 353.546,278.640 C353.546,278.807 353.546,278.973 353.546,279.140 C352.712,279.140 351.877,279.140 351.043,279.140 C351.043,279.307 351.043,279.473 351.043,279.640 C347.539,279.640 344.035,279.640 340.531,279.640 C340.531,279.807 340.531,279.974 340.531,280.140 C339.530,280.140 338.529,280.140 337.528,280.140 C337.528,280.307 337.528,280.474 337.528,280.641 C336.860,280.641 336.193,280.641 335.525,280.641 C335.525,280.807 335.525,280.974 335.525,281.141 C334.858,281.141 334.190,281.141 333.523,281.141 C333.523,281.308 333.523,281.474 333.523,281.641 C330.854,281.641 328.183,281.641 325.514,281.641 C325.514,281.808 325.514,281.974 325.514,282.141 C322.844,282.308 320.174,282.475 317.505,282.641 C315.669,282.641 313.834,282.641 311.998,282.641 C311.831,282.975 311.665,283.308 311.498,283.642 C311.164,283.642 310.830,283.642 310.497,283.642 ZM218.892,300.648 C218.892,299.648 218.892,298.648 218.892,297.647 C218.271,297.328 218.175,296.828 217.890,296.647 C217.557,296.647 217.223,296.647 216.889,296.647 C216.889,296.480 216.889,296.313 216.889,296.147 C216.556,296.147 216.222,296.147 215.888,296.147 C215.721,295.813 215.554,295.480 215.388,295.146 C215.054,295.146 214.720,295.146 214.386,295.146 C214.053,294.646 213.719,294.146 213.385,293.646 C213.052,293.646 212.718,293.646 212.384,293.646 C212.217,293.312 212.050,292.979 211.884,292.645 C211.383,292.479 210.882,292.312 210.382,292.145 C210.382,291.978 210.382,291.812 210.382,291.645 C210.048,291.645 209.714,291.645 209.381,291.645 C209.214,291.311 209.047,290.978 208.880,290.644 C208.546,290.644 208.213,290.644 207.879,290.644 C207.712,290.311 207.545,289.978 207.378,289.644 C207.045,289.644 206.711,289.644 206.377,289.644 C206.210,289.311 206.044,288.977 205.877,288.644 C205.543,288.644 205.209,288.644 204.876,288.644 C204.876,288.477 204.876,288.310 204.876,288.144 C204.041,287.977 203.207,287.810 202.373,287.643 C202.373,287.477 202.373,287.310 202.373,287.143 C201.705,286.976 201.038,286.810 200.370,286.643 C200.370,286.476 200.370,286.309 200.370,286.143 C200.037,286.143 199.703,286.143 199.369,286.143 C199.202,285.809 199.035,285.476 198.869,285.142 C198.535,285.142 198.201,285.142 197.867,285.142 C197.867,284.976 197.867,284.809 197.867,284.642 C197.200,284.475 196.533,284.309 195.865,284.142 C195.865,283.975 195.865,283.808 195.865,283.642 C195.198,283.642 194.530,283.642 193.863,283.642 C193.863,283.475 193.863,283.308 193.863,283.142 C193.362,283.142 192.862,283.142 192.361,283.142 C192.361,282.975 192.361,282.808 192.361,282.641 C191.861,282.641 191.360,282.641 190.859,282.641 C190.859,282.475 190.859,282.308 190.859,282.141 C190.359,282.141 189.858,282.141 189.358,282.141 C189.358,281.974 189.358,281.808 189.358,281.641 C187.689,281.308 186.020,280.974 184.352,280.641 C184.185,280.307 184.018,279.974 183.851,279.640 C183.184,279.473 182.516,279.307 181.849,279.140 C181.849,278.973 181.849,278.807 181.849,278.640 C180.848,278.306 179.847,277.973 178.846,277.639 C178.846,277.473 178.846,277.306 178.846,277.139 C178.345,277.139 177.844,277.139 177.344,277.139 C177.344,276.973 177.344,276.806 177.344,276.639 C176.510,276.639 175.675,276.639 174.841,276.639 C174.841,276.472 174.841,276.306 174.841,276.139 C174.341,276.139 173.840,276.139 173.339,276.139 C170.902,275.187 168.243,274.286 164.830,274.138 C164.329,274.805 163.828,275.472 163.328,276.139 C163.161,276.139 162.994,276.139 162.827,276.139 C162.230,277.209 161.844,281.405 161.826,283.142 C162.994,284.475 164.162,285.809 165.330,287.143 C165.664,287.143 165.998,287.143 166.331,287.143 C166.999,287.977 167.666,288.811 168.334,289.644 C168.667,289.644 169.001,289.644 169.335,289.644 C169.668,290.144 170.002,290.645 170.336,291.145 C170.670,291.145 171.003,291.145 171.337,291.145 C171.504,291.478 171.671,291.812 171.838,292.145 C172.171,292.145 172.505,292.145 172.839,292.145 C173.006,292.479 173.173,292.812 173.339,293.145 C174.841,293.646 176.343,294.146 177.845,294.646 C177.845,294.813 177.845,294.980 177.845,295.146 C178.512,295.313 179.179,295.480 179.847,295.646 C179.847,295.813 179.847,295.980 179.847,296.147 C180.180,296.147 180.514,296.147 180.848,296.147 C180.848,296.313 180.848,296.480 180.848,296.647 C181.348,296.647 181.849,296.647 182.350,296.647 C182.517,296.980 182.683,297.314 182.850,297.647 C183.184,297.647 183.518,297.647 183.851,297.647 L184.853,298.648 C185.186,298.648 185.520,298.648 185.854,298.648 C185.854,298.814 185.854,298.981 185.854,299.148 C186.187,299.148 186.521,299.148 186.855,299.148 C187.022,299.481 187.189,299.815 187.355,300.148 C187.856,300.148 188.357,300.148 188.857,300.148 C188.857,300.315 188.857,300.482 188.857,300.648 C189.858,300.648 190.860,300.648 191.861,300.648 C191.861,300.815 191.861,300.982 191.861,301.149 C194.196,301.149 196.533,301.149 198.869,301.149 C198.869,301.315 198.869,301.482 198.869,301.649 C200.370,301.649 201.872,301.649 203.374,301.649 C203.374,301.816 203.374,301.982 203.374,302.149 C206.377,302.149 209.381,302.149 212.384,302.149 C212.384,302.316 212.384,302.482 212.384,302.649 C213.238,302.782 213.230,302.187 213.385,302.149 C214.219,302.149 215.054,302.149 215.888,302.149 C215.888,301.982 215.888,301.816 215.888,301.649 C216.889,301.315 217.891,300.982 218.892,300.648 ZM247.424,282.641 C247.257,283.642 247.091,284.642 246.924,285.643 C249.084,286.892 249.311,288.059 252.931,288.144 C253.564,287.357 254.262,286.930 255.433,286.643 C255.433,285.643 255.433,284.642 255.433,283.642 C254.933,283.475 254.432,283.308 253.932,283.142 C252.905,282.199 249.315,282.591 247.424,282.641 ZM280.963,300.648 C280.295,301.482 279.628,302.316 278.960,303.149 C278.794,303.149 278.627,303.149 278.460,303.149 C278.460,303.483 278.460,303.816 278.460,304.150 L277.459,305.150 C277.459,305.484 277.459,305.817 277.459,306.151 C277.292,306.151 277.125,306.151 276.958,306.151 C276.958,306.484 276.958,306.818 276.958,307.151 C276.624,307.318 276.291,307.484 275.957,307.651 C275.957,307.985 275.957,308.318 275.957,308.652 C275.790,308.652 275.623,308.652 275.456,308.652 C275.456,308.985 275.456,309.318 275.456,309.652 C274.956,309.985 274.455,310.319 273.955,310.652 C273.788,311.152 273.621,311.653 273.454,312.153 C273.120,312.320 272.787,312.486 272.453,312.653 C271.153,314.080 270.547,315.459 270.451,318.155 C270.618,318.155 270.784,318.155 270.951,318.155 C271.118,319.156 271.285,320.156 271.452,321.156 C271.619,321.156 271.786,321.156 271.952,321.156 C271.952,321.490 271.952,321.823 271.952,322.157 C272.119,322.157 272.286,322.157 272.453,322.157 C272.453,322.657 272.453,323.157 272.453,323.657 C272.620,323.657 272.787,323.657 272.954,323.657 C272.954,324.158 272.954,324.658 272.954,325.158 C273.120,325.158 273.287,325.158 273.454,325.158 C273.454,325.658 273.454,326.158 273.454,326.659 C273.788,326.825 274.122,326.992 274.455,327.159 C274.455,327.492 274.455,327.826 274.455,328.159 C276.124,329.660 277.793,331.160 279.461,332.661 C279.461,332.994 279.461,333.328 279.461,333.661 C279.962,333.995 280.462,334.328 280.963,334.662 C280.963,334.828 280.963,334.995 280.963,335.162 C281.797,335.162 282.631,335.162 283.466,335.162 C284.158,333.855 284.351,334.315 284.467,332.161 C283.306,330.835 283.862,325.466 283.966,323.157 C284.056,321.179 285.176,318.217 284.467,315.654 C284.300,315.654 284.133,315.654 283.966,315.654 C283.799,310.986 283.632,306.317 283.466,301.649 C282.808,301.244 282.876,301.297 282.464,300.648 C281.964,300.648 281.463,300.648 280.963,300.648 ZM186.855,324.158 C186.568,325.163 186.915,324.590 186.354,325.158 C186.641,326.163 186.294,325.591 186.855,326.158 C188.043,327.976 188.092,326.863 189.858,327.659 C189.858,327.826 189.858,327.992 189.858,328.159 C190.192,328.159 190.526,328.159 190.859,328.159 C190.859,328.326 190.859,328.493 190.859,328.659 C191.193,328.659 191.527,328.659 191.861,328.659 C192.027,328.993 192.194,329.326 192.361,329.660 C193.362,329.826 194.364,329.993 195.365,330.160 C195.365,330.327 195.365,330.493 195.365,330.660 C197.367,330.660 199.369,330.660 201.371,330.660 C201.371,330.493 201.371,330.327 201.371,330.160 C204.041,330.160 206.711,330.160 209.381,330.160 C209.381,329.993 209.381,329.826 209.381,329.660 C210.382,329.493 211.383,329.326 212.384,329.160 C212.807,328.592 212.321,329.087 212.885,328.659 C212.885,327.826 212.885,326.992 212.885,326.158 C209.753,325.623 205.257,325.662 201.371,325.658 C199.870,325.658 198.368,325.658 196.866,325.658 C196.866,325.491 196.866,325.325 196.866,325.158 C196.366,325.158 195.865,325.158 195.365,325.158 C195.365,324.991 195.365,324.824 195.365,324.658 C194.197,324.658 193.028,324.658 191.861,324.658 C191.861,324.491 191.861,324.324 191.861,324.158 C189.784,323.556 188.465,324.075 186.855,324.158 Z" class="cls-1"/>
</svg>
