<?xml version="1.0" standalone="no"?>
<!DOCTYPE svg PUBLIC "-//W3C//DTD SVG 20010904//EN"
 "http://www.w3.org/TR/2001/REC-SVG-20010904/DTD/svg10.dtd">
<svg version="1.0" xmlns="http://www.w3.org/2000/svg"
 width="993.000000pt" height="993.000000pt" viewBox="0 0 993.000000 993.000000"
 preserveAspectRatio="xMidYMid meet">
<metadata>
Created by potrace 1.11, written by Peter Selinger 2001-2013
</metadata>
<g transform="translate(0.000000,993.000000) scale(0.100000,-0.100000)"
fill="#000000" stroke="none">
<path d="M1789 9120 c-82 -43 -169 -250 -169 -404 0 -41 -9 -115 -20 -163 -12
-48 -22 -132 -24 -188 -2 -55 -9 -113 -16 -130 -7 -16 -14 -52 -16 -80 -1 -27
-5 -63 -9 -80 -3 -16 -7 -44 -9 -61 -2 -17 -9 -40 -15 -52 -6 -12 -9 -22 -6
-22 3 0 -1 -13 -10 -30 -9 -16 -13 -30 -9 -30 4 0 2 -6 -4 -12 -5 -7 -12 -38
-15 -68 -3 -30 -11 -71 -18 -90 -6 -19 -15 -87 -20 -150 -18 -219 -25 -264
-48 -315 -18 -37 -24 -66 -23 -113 1 -34 -3 -75 -9 -90 -6 -14 -12 -45 -15
-67 -3 -22 -8 -47 -11 -55 -3 -8 -5 -23 -4 -32 1 -10 -2 -18 -8 -18 -5 0 -8
-9 -6 -20 2 -11 1 -20 -4 -20 -4 0 -6 -28 -6 -62 1 -35 -1 -67 -4 -73 -3 -5
-7 -19 -8 -30 -2 -10 -7 -22 -12 -25 -9 -5 -9 -10 -15 -80 -2 -25 -7 -56 -11
-70 -12 -45 -17 -74 -21 -135 -3 -43 -16 -88 -49 -161 -24 -55 -47 -121 -49
-145 -6 -53 -16 -100 -25 -114 -4 -5 -8 -23 -10 -39 -2 -17 -8 -41 -14 -55 -6
-14 -11 -28 -12 -31 -1 -3 -4 -12 -8 -20 -3 -8 -9 -37 -12 -65 -4 -27 -14 -66
-23 -85 -8 -19 -16 -37 -17 -40 -1 -3 -6 -16 -12 -30 -5 -14 -16 -54 -23 -90
-7 -36 -19 -74 -26 -85 -20 -31 -45 -106 -50 -150 -3 -22 -9 -41 -14 -43 -5
-2 -7 -9 -4 -16 3 -8 -2 -30 -10 -51 -9 -21 -16 -48 -16 -61 0 -12 -4 -25 -10
-29 -5 -3 -7 -11 -4 -19 3 -7 -1 -26 -7 -42 -7 -16 -13 -36 -15 -44 -2 -8 -15
-37 -29 -65 -13 -27 -25 -56 -25 -62 0 -7 -5 -13 -11 -13 -6 0 -9 -7 -5 -15 3
-8 2 -15 -3 -15 -8 0 -15 -31 -28 -125 -3 -22 -6 -44 -7 -50 0 -5 -4 -12 -7
-15 -3 -3 -13 -32 -23 -65 -10 -33 -20 -67 -23 -75 -8 -20 -9 -25 -22 -98 -11
-59 -56 -181 -72 -192 -3 -3 -10 -32 -14 -65 -5 -39 -20 -84 -46 -133 -21 -41
-39 -82 -39 -92 0 -11 -8 -43 -18 -72 -11 -29 -32 -92 -48 -140 -16 -49 -32
-88 -36 -88 -4 0 -5 -7 -1 -16 3 -9 1 -19 -5 -23 -5 -3 -13 -31 -17 -61 -4
-31 -13 -59 -21 -63 -8 -5 -12 -12 -9 -17 3 -5 -4 -14 -15 -20 -11 -6 -20 -16
-20 -22 0 -6 -8 -16 -17 -23 -13 -10 -17 -30 -18 -91 -1 -82 -6 -101 -37 -144
-9 -14 -23 -59 -29 -100 -6 -40 -17 -83 -25 -95 -7 -11 -13 -22 -12 -25 1 -10
-36 -80 -42 -80 -4 0 -7 -14 -8 -31 0 -18 -6 -37 -11 -42 -6 -6 -11 -24 -11
-39 0 -15 -5 -28 -11 -28 -5 0 -8 -4 -5 -9 4 -5 1 -11 -4 -13 -6 -2 -13 -24
-15 -50 -1 -26 -8 -63 -15 -83 -16 -50 -7 -181 15 -220 18 -30 56 -65 78 -69
7 -2 19 -5 27 -8 60 -21 197 -48 243 -48 49 0 58 4 103 43 46 39 69 63 142
145 17 18 40 54 53 80 13 26 27 49 31 52 9 7 58 116 58 129 0 6 5 11 11 11 5
0 7 4 4 10 -3 5 -2 10 4 10 5 0 12 14 16 30 4 17 15 35 26 40 10 6 19 17 19
26 0 8 6 17 14 20 8 3 17 22 21 42 10 51 29 84 69 120 20 17 36 36 36 41 0 5
7 22 15 37 8 16 15 36 15 45 0 9 7 19 15 23 8 3 15 15 15 26 0 11 4 20 9 20 5
0 12 24 16 53 7 47 28 104 44 117 12 10 69 136 80 178 11 40 38 80 70 106 8 6
29 26 47 44 18 17 36 32 41 32 4 0 19 16 32 35 13 19 26 35 30 35 3 0 29 18
58 39 29 22 60 41 70 43 10 2 20 5 23 8 3 3 21 14 40 24 19 11 43 30 53 43 10
13 25 23 33 23 8 0 14 5 14 11 0 5 17 17 37 26 42 17 155 13 161 -6 2 -6 10
-11 18 -11 8 0 14 -4 14 -9 0 -4 27 -20 60 -34 33 -15 67 -35 77 -46 9 -11 20
-18 25 -15 4 3 11 -2 14 -10 3 -9 12 -16 20 -16 8 0 14 -4 14 -10 0 -5 7 -10
15 -10 9 0 18 -7 21 -15 4 -8 10 -13 14 -10 5 3 17 -6 28 -20 11 -14 23 -25
27 -25 17 0 242 -238 258 -272 10 -21 22 -38 27 -38 6 0 10 -5 10 -10 0 -6 33
-43 73 -81 39 -39 71 -75 70 -79 -2 -5 11 -18 27 -30 16 -12 29 -24 28 -28 -1
-4 17 -26 40 -49 45 -47 78 -133 102 -268 7 -38 17 -75 21 -81 5 -6 6 -13 3
-16 -8 -8 17 -128 27 -128 4 0 6 -9 4 -20 -4 -23 60 -161 81 -173 8 -4 14 -15
14 -22 0 -8 4 -15 9 -15 5 0 21 -24 35 -52 13 -29 33 -62 43 -73 10 -11 40
-46 67 -77 27 -32 53 -58 58 -58 5 0 16 -6 24 -14 7 -8 37 -22 66 -31 95 -30
167 -70 156 -87 0 -2 24 -29 54 -60 55 -58 89 -78 143 -85 16 -3 43 -12 60
-20 57 -30 65 -33 80 -33 8 0 15 -4 15 -8 0 -4 8 -8 18 -9 9 0 28 -4 42 -8 14
-4 50 -11 80 -16 30 -5 75 -13 100 -18 53 -12 220 -14 220 -3 0 4 28 8 63 9
136 4 213 13 237 28 12 7 41 14 90 22 19 3 85 29 145 58 74 36 129 55 167 60
33 4 86 21 127 41 76 37 125 43 156 16 23 -21 65 -78 65 -89 0 -4 14 -21 30
-38 35 -35 150 -204 150 -221 0 -7 6 -14 14 -17 8 -3 17 -19 21 -36 4 -17 11
-31 16 -31 5 0 9 -5 9 -11 0 -6 6 -17 12 -24 31 -34 37 -45 54 -94 10 -28 22
-51 26 -51 5 0 8 -6 8 -13 0 -7 11 -24 25 -39 14 -15 25 -32 25 -38 0 -6 7
-13 15 -16 8 -4 15 -12 15 -20 0 -8 9 -19 20 -26 11 -7 20 -18 20 -25 0 -6 10
-19 22 -27 12 -9 18 -16 13 -16 -5 0 3 -12 17 -27 14 -16 43 -55 66 -88 22
-33 61 -78 87 -100 55 -48 135 -96 147 -89 4 3 8 0 8 -7 0 -9 25 -10 96 -6
111 7 214 26 214 39 0 4 11 13 25 18 14 5 25 14 25 20 0 6 11 28 26 49 14 21
26 48 27 60 1 11 4 21 8 21 3 0 6 15 7 33 1 17 8 55 17 82 16 56 20 111 6 119
-7 5 -16 35 -22 74 0 4 -5 12 -9 17 -5 6 -7 20 -6 30 2 11 1 25 -3 30 -6 11
-8 22 -16 80 -2 22 -11 76 -19 120 -19 109 -25 179 -27 323 -1 68 -7 146 -14
173 -7 27 -13 52 -14 54 0 3 -2 24 -6 48 -3 23 -8 67 -10 97 -2 30 -8 85 -13
121 -13 108 -4 296 20 384 17 66 16 124 -4 199 -10 39 -21 103 -24 143 -5 69
-5 73 22 100 27 27 32 28 143 30 64 1 127 6 141 10 14 3 61 8 105 10 109 5
125 7 125 14 0 3 6 6 13 7 6 1 37 6 67 12 30 5 96 10 145 10 53 -1 115 6 150
15 93 25 240 44 344 45 86 0 161 13 186 31 9 6 70 21 100 24 26 2 95 27 100
35 3 6 21 10 39 10 17 0 36 4 42 9 5 5 52 11 104 12 52 1 101 7 108 12 6 5 12
6 12 2 0 -4 7 -2 15 5 8 6 19 9 25 5 5 -3 10 -1 10 5 0 6 6 10 13 9 6 -1 19 1
27 4 8 3 38 8 65 10 28 3 97 17 155 31 58 14 128 31 155 37 43 9 104 26 165
47 8 3 31 6 50 8 61 6 92 14 176 44 45 17 101 32 125 35 57 6 62 7 139 33 36
12 83 23 106 26 22 2 49 8 60 14 10 5 22 10 27 11 29 3 56 15 61 27 3 8 10 14
15 14 16 0 121 109 132 136 15 42 10 108 -17 216 -46 180 -97 241 -212 254
-33 3 -67 2 -74 -2 -7 -5 -51 -9 -98 -10 -47 -1 -85 -3 -85 -4 0 -2 -37 -10
-65 -13 -14 -2 -30 -6 -35 -9 -6 -4 -67 -8 -135 -9 -133 -3 -168 -12 -219 -55
-17 -14 -31 -23 -31 -19 0 4 -6 3 -13 -3 -12 -10 -30 -13 -157 -28 -45 -5
-152 -29 -180 -41 -8 -3 -19 -5 -23 -4 -16 3 -87 -22 -87 -31 0 -5 -4 -7 -9
-3 -5 3 -12 1 -16 -4 -3 -6 -12 -8 -20 -4 -8 3 -15 0 -15 -7 0 -7 -7 -10 -15
-7 -8 4 -17 2 -20 -3 -3 -5 -27 -12 -53 -16 -26 -3 -51 -9 -57 -12 -5 -3 -16
-7 -25 -8 -23 -4 -55 -12 -55 -15 0 -1 -18 -3 -40 -5 -22 -2 -47 -5 -55 -7 -8
-2 -33 -8 -55 -14 -22 -6 -80 -16 -130 -22 -49 -7 -129 -25 -178 -42 -49 -16
-108 -29 -131 -29 -22 0 -70 -8 -106 -16 -36 -9 -73 -16 -82 -16 -10 0 -20 -3
-23 -8 -3 -5 -12 -7 -20 -4 -8 3 -20 2 -27 -2 -7 -5 -47 -9 -88 -10 -41 -1
-75 -2 -75 -3 0 -5 -42 -10 -90 -12 -27 -1 -54 -5 -60 -8 -5 -3 -17 -6 -25 -6
-8 0 -21 -4 -27 -8 -7 -5 -17 -5 -23 -2 -5 3 -10 2 -10 -4 0 -5 -9 -8 -20 -6
-11 2 -20 0 -20 -4 0 -4 -6 -8 -12 -9 -26 -2 -63 -10 -78 -16 -8 -3 -37 -10
-65 -15 -42 -8 -53 -6 -77 11 -15 10 -31 31 -35 46 -8 30 -8 152 0 277 4 70 1
91 -26 170 -16 50 -35 97 -42 105 -7 8 -23 39 -36 68 -13 28 -27 52 -31 52 -5
0 -8 4 -8 9 0 21 -64 74 -110 92 -76 29 -136 25 -194 -11 -26 -17 -45 -34 -42
-39 3 -5 -1 -11 -9 -15 -8 -3 -15 -11 -15 -18 0 -7 -9 -19 -20 -26 -11 -7 -20
-18 -20 -25 0 -7 -9 -18 -20 -25 -11 -7 -20 -19 -20 -27 0 -8 -4 -15 -9 -15
-5 0 -26 -35 -47 -77 -21 -43 -41 -80 -45 -83 -12 -10 -78 -156 -82 -185 -12
-68 -21 -100 -30 -106 -5 -4 -10 -18 -10 -33 -1 -14 -5 -26 -9 -26 -5 0 -8 -6
-8 -13 0 -8 -9 -24 -20 -37 -11 -13 -20 -29 -20 -36 0 -7 -13 -27 -29 -43
l-30 -30 -148 5 c-133 4 -157 8 -238 36 -68 24 -111 32 -175 34 -128 4 -265 4
-365 0 -49 -2 -94 -1 -100 3 -10 5 -72 11 -127 11 -16 0 -28 5 -28 12 0 6 -3
9 -6 5 -4 -3 -21 0 -39 8 -19 7 -36 11 -39 7 -3 -3 -6 -1 -6 5 0 5 -6 10 -12
11 -7 0 -24 3 -38 7 -26 7 -100 15 -185 20 -27 2 -71 6 -96 10 -26 4 -64 8
-85 10 -22 2 -39 4 -39 5 0 1 -7 3 -15 5 -8 1 -40 10 -70 20 -30 9 -95 19
-144 21 -64 2 -94 7 -105 19 -21 21 -20 88 2 112 9 11 17 29 17 41 0 12 5 22
11 22 6 0 8 9 4 20 -3 11 -2 20 3 20 5 0 13 26 17 57 4 32 13 66 21 77 8 11
14 30 14 41 0 12 4 25 9 30 5 6 11 24 12 40 2 17 9 39 16 50 7 11 13 25 13 33
0 7 11 37 24 65 26 56 58 129 61 137 0 3 4 22 8 43 5 20 12 37 18 37 6 0 8 4
4 9 -3 5 -1 12 5 16 6 4 8 10 5 15 -3 5 -1 11 5 15 5 3 10 15 10 25 0 10 4 20
10 22 5 2 11 15 12 31 1 15 6 27 11 27 4 0 5 4 2 10 -3 6 -1 10 4 10 6 0 10 3
9 8 -3 13 59 139 78 158 23 23 61 99 69 137 3 15 14 36 24 46 11 11 17 22 14
25 -3 2 22 32 56 66 34 33 61 67 61 75 0 8 4 15 8 15 5 0 17 18 27 40 10 22
22 40 27 40 4 0 8 6 8 14 0 8 7 16 15 20 8 3 14 9 13 13 -3 9 15 33 45 61 9 9
17 22 17 29 0 7 5 13 11 13 5 0 8 4 5 9 -3 4 3 16 14 26 11 10 20 23 20 30 0
6 16 28 35 49 19 21 35 42 35 47 0 4 11 16 25 27 14 11 25 24 25 30 0 6 15 23
33 38 17 15 32 30 32 33 0 3 10 20 23 38 12 17 22 35 22 40 0 5 23 34 50 65
28 31 50 61 50 66 0 6 4 12 9 14 17 6 91 78 93 90 2 7 13 21 26 31 12 10 22
23 22 29 0 6 19 29 43 50 108 100 194 188 183 188 -8 0 121 120 130 121 5 0
31 26 59 57 43 50 222 182 246 182 5 0 9 4 9 9 0 11 105 91 120 91 5 0 10 5
10 10 0 6 7 10 15 10 8 0 15 5 15 10 0 6 7 10 15 10 8 0 15 5 15 10 0 6 7 10
15 10 8 0 15 4 15 10 0 5 11 12 25 16 14 3 25 10 25 14 0 5 10 11 23 15 41 12
152 58 229 96 10 5 26 9 36 9 10 0 23 5 30 12 7 7 12 8 12 4 0 -5 10 -2 23 7
13 8 39 17 57 20 40 6 108 27 160 50 20 8 56 18 80 22 25 4 49 13 53 21 4 8
15 14 22 14 8 0 15 7 15 15 0 8 4 15 9 15 19 0 54 127 55 200 0 23 -37 120
-46 120 -4 0 -8 6 -8 13 0 21 -100 78 -169 97 -126 35 -389 13 -524 -44 -19
-7 -53 -17 -76 -21 -22 -4 -41 -11 -41 -16 0 -5 -9 -9 -20 -9 -11 0 -20 -5
-20 -12 0 -6 -3 -9 -6 -5 -4 3 -18 0 -33 -7 -14 -7 -46 -14 -70 -15 -62 -4
-81 -8 -100 -24 -24 -20 -86 -47 -109 -47 -11 0 -27 -7 -36 -15 -8 -8 -19 -15
-25 -15 -6 0 -11 -5 -11 -10 0 -6 -21 -20 -46 -31 -34 -14 -91 -64 -211 -184
-90 -91 -168 -165 -173 -165 -6 0 -15 -9 -22 -20 -7 -11 -18 -20 -24 -20 -6 0
-23 -11 -38 -25 -15 -14 -31 -25 -35 -25 -5 0 -23 -16 -40 -35 -17 -19 -33
-35 -36 -35 -6 0 -107 -81 -149 -121 -17 -16 -34 -29 -38 -29 -5 0 -8 -6 -8
-14 0 -12 -28 -41 -96 -97 -31 -26 -117 -126 -133 -156 -9 -15 -25 -36 -36
-46 -81 -74 -105 -100 -105 -111 0 -7 -11 -19 -25 -26 -14 -7 -23 -16 -20 -18
3 -3 -5 -16 -17 -29 -12 -13 -18 -23 -15 -23 4 0 -17 -24 -47 -54 -30 -30 -58
-66 -62 -80 -3 -14 -10 -26 -15 -26 -5 0 -9 -7 -9 -15 0 -8 -4 -15 -10 -15 -5
0 -10 -7 -10 -15 0 -8 -9 -19 -20 -25 -11 -6 -20 -19 -20 -28 0 -10 -14 -28
-31 -41 -17 -13 -28 -25 -25 -28 2 -3 -9 -18 -25 -34 -16 -16 -40 -58 -53 -95
-14 -37 -41 -90 -60 -119 -20 -28 -36 -59 -36 -67 0 -9 -7 -18 -15 -22 -8 -3
-15 -11 -15 -17 0 -7 -11 -26 -24 -43 -12 -17 -29 -49 -37 -71 -8 -22 -17 -42
-20 -45 -3 -3 -14 -30 -24 -60 -9 -30 -26 -68 -35 -85 -10 -16 -26 -50 -36
-75 -10 -25 -29 -60 -42 -77 -13 -18 -22 -33 -18 -33 3 0 -6 -21 -19 -46 -14
-26 -25 -52 -25 -58 0 -6 -9 -17 -20 -24 -11 -7 -20 -17 -20 -23 0 -6 -7 -17
-15 -26 -8 -8 -13 -19 -10 -24 4 -5 2 -9 -4 -9 -5 0 -15 -16 -21 -36 -7 -20
-18 -48 -26 -62 -8 -15 -14 -37 -14 -49 0 -20 -35 -109 -60 -155 -6 -10 -10
-25 -10 -33 0 -8 -4 -15 -8 -15 -9 0 -58 -110 -54 -122 1 -5 -3 -8 -8 -8 -6 0
-10 -11 -10 -25 0 -14 -4 -33 -9 -43 -5 -9 -14 -39 -20 -66 -6 -26 -20 -67
-30 -90 -17 -38 -35 -88 -33 -93 0 -2 -4 -17 -9 -35 -6 -18 -12 -44 -15 -58
-3 -14 -9 -27 -15 -28 -5 -2 -6 -8 -3 -13 10 -16 -23 -73 -55 -97 -21 -16 -44
-22 -79 -22 -52 0 -129 -31 -139 -55 -3 -8 -9 -15 -14 -15 -5 0 -28 -18 -50
-40 -57 -56 -76 -53 -157 23 -37 34 -88 77 -114 95 -27 18 -48 37 -48 43 0 5
-11 14 -25 19 -14 5 -25 14 -25 20 0 5 -7 10 -15 10 -9 0 -18 7 -21 15 -4 8
-12 15 -19 15 -8 0 -20 6 -27 13 -7 7 -28 20 -45 28 -18 7 -33 16 -33 19 0 3
-9 6 -21 7 -30 3 -89 23 -89 32 0 10 -28 12 -215 11 -209 -1 -295 -5 -317 -15
-10 -4 -29 -8 -43 -9 -14 0 -25 -3 -25 -6 0 -3 -15 -11 -32 -19 -18 -8 -42
-21 -53 -31 -24 -20 -93 -60 -104 -60 -4 0 -15 6 -25 13 -16 12 -16 16 5 72
12 33 23 78 24 100 0 22 9 55 18 74 9 18 14 37 11 42 -3 5 -1 9 4 9 6 0 13 23
17 51 4 28 18 75 31 103 16 35 23 69 23 106 -1 40 10 84 39 165 23 61 44 122
47 138 4 15 11 30 16 33 5 3 7 10 4 15 -4 5 -1 9 5 9 6 0 8 5 5 10 -3 6 -2 10
4 10 5 0 12 14 16 30 4 17 10 30 14 30 4 0 9 21 10 48 5 93 12 123 46 183 8
15 16 44 18 65 1 22 6 45 10 52 5 6 5 17 2 22 -3 6 -2 10 3 10 19 0 39 137 41
287 1 17 8 38 16 47 8 8 15 19 15 24 0 5 8 27 17 48 9 22 16 42 15 46 -1 4 3
20 10 35 6 15 11 31 10 35 -1 4 3 20 10 35 6 15 12 35 14 43 2 15 10 47 19 78
25 87 63 271 57 277 -3 2 0 10 5 17 10 13 17 41 49 213 8 44 22 114 31 155 9
41 16 85 14 97 -1 12 5 35 13 52 9 16 16 41 16 54 0 13 3 27 8 31 4 4 8 12 8
17 1 5 3 10 4 12 3 3 8 64 10 137 2 36 5 70 9 75 3 6 6 18 7 28 1 9 3 18 4 20
2 1 4 20 6 42 1 22 5 54 9 70 3 17 7 46 9 65 2 19 5 35 6 35 2 0 5 20 7 45 2
25 4 53 5 63 1 9 7 17 12 17 5 0 6 3 3 7 -4 3 -2 12 5 20 7 9 12 69 13 166 2
125 6 163 24 217 19 57 23 95 28 315 4 184 2 263 -7 302 -7 29 -17 53 -22 53
-4 0 -8 7 -8 15 0 8 -4 15 -10 15 -5 0 -10 7 -10 15 0 7 -6 18 -13 22 -8 4
-16 16 -20 26 -4 9 -14 20 -23 24 -9 3 -27 17 -40 29 -19 20 -33 24 -86 24
-42 -1 -75 -7 -99 -20z m1782 -5715 c46 -13 93 -25 103 -25 21 0 141 -55 166
-75 8 -7 31 -15 50 -18 19 -3 49 -11 65 -18 17 -7 36 -11 43 -10 6 1 12 -2 12
-7 0 -5 6 -9 13 -10 24 -2 47 -8 53 -15 4 -4 16 -7 26 -7 10 0 18 -4 18 -10 0
-5 6 -10 14 -10 8 0 16 -4 18 -8 2 -4 31 -20 66 -35 34 -14 96 -49 137 -77 41
-27 76 -50 78 -50 3 0 19 -13 37 -30 18 -16 36 -27 41 -24 5 3 9 1 9 -4 0 -5
9 -12 20 -15 15 -4 20 -14 20 -39 0 -30 -5 -36 -42 -53 -48 -21 -124 -22 -343
-5 -173 14 -267 27 -274 37 -3 4 -27 18 -53 31 -26 13 -50 27 -53 33 -4 5 -11
7 -16 4 -5 -4 -9 -1 -9 5 0 6 -4 8 -10 5 -5 -3 -10 -1 -10 4 0 6 -9 11 -19 11
-11 0 -22 4 -25 9 -4 5 -26 16 -51 24 -24 9 -54 25 -67 36 -12 12 -27 21 -34
21 -6 0 -14 7 -18 15 -3 8 -10 15 -15 15 -10 0 -53 36 -114 97 -33 34 -37 42
-33 78 3 22 5 49 5 61 1 33 50 84 80 84 15 0 65 -11 112 -25z m1715 -157 c53
-19 53 -63 0 -92 -38 -20 -62 -16 -111 18 -29 20 -33 33 -20 72 4 15 91 17
131 2z m609 -381 c8 -9 13 -46 15 -113 1 -54 4 -119 7 -144 7 -64 7 -120 0
-242 -4 -61 -2 -119 3 -133 13 -35 -6 -75 -36 -75 -25 0 -64 27 -64 44 0 6
-27 36 -60 68 -33 31 -60 65 -60 76 0 10 -5 23 -12 30 -7 7 -9 12 -5 12 4 0 2
10 -5 23 -7 12 -12 25 -13 29 0 3 -3 10 -7 14 -5 4 -8 17 -8 29 0 11 -5 26
-10 31 -13 13 13 91 40 119 45 46 70 79 70 91 0 7 3 14 8 16 4 2 16 21 27 43
25 50 64 95 82 95 8 0 20 -6 28 -13z m-1858 -486 c29 -5 57 -12 61 -15 5 -3
67 -6 139 -7 160 -1 198 -8 199 -34 1 -28 -15 -45 -41 -45 -12 0 -25 -3 -29
-7 -4 -4 -42 -9 -84 -10 -42 -1 -104 -4 -137 -6 -33 -2 -65 0 -70 4 -6 4 -23
9 -38 11 -16 3 -32 9 -35 14 -4 5 -27 18 -52 29 -49 21 -70 42 -63 61 8 23 51
24 150 5z"/>
</g>
</svg>
